<svg width="16" height="14" viewBox="0 0 16 14" fill="none" xmlns="http://www.w3.org/2000/svg">
<path d="M6.80937 2.30901L10.6469 6.14651C10.8719 6.37151 11 6.68088 11 6.99963C11 7.31838 10.8719 7.62776 10.6469 7.85276L6.80937 11.6903C6.60938 11.8903 6.34062 11.9996 6.05937 11.9996C5.475 11.9996 5 11.5246 5 10.9403V8.99963H1C0.446875 8.99963 0 8.55276 0 7.99963V5.99963C0 5.44651 0.446875 4.99963 1 4.99963H5V3.05901C5 2.47463 5.475 1.99963 6.05937 1.99963C6.34062 1.99963 6.60938 2.11213 6.80937 2.30901ZM11 11.9996H13C13.5531 11.9996 14 11.5528 14 10.9996V2.99963C14 2.44651 13.5531 1.99963 13 1.99963H11C10.4469 1.99963 10 1.55276 10 0.999634C10 0.446509 10.4469 -0.000366211 11 -0.000366211H13C14.6562 -0.000366211 16 1.34338 16 2.99963V10.9996C16 12.6559 14.6562 13.9996 13 13.9996H11C10.4469 13.9996 10 13.5528 10 12.9996C10 12.4465 10.4469 11.9996 11 11.9996Z" fill="currentColor"/>
</svg>
