<svg width="24" height="24" viewBox="0 0 24 24" fill="none" xmlns="http://www.w3.org/2000/svg">
<path d="M9.49497 13.505C9.22161 13.2317 8.77839 13.2317 8.50503 13.505C8.23166 13.7784 8.23166 14.2216 8.50503 14.495L9.49497 13.505ZM11 16L10.505 16.495C10.7784 16.7683 11.2216 16.7683 11.495 16.495L11 16ZM15.495 12.495C15.7683 12.2216 15.7683 11.7784 15.495 11.505C15.2216 11.2317 14.7784 11.2317 14.505 11.505L15.495 12.495ZM19 7H18.3V19H19H19.7V7H19ZM17 21V20.3H7V21V21.7H17V21ZM5 19H5.7V7H5H4.3V19H5ZM7 5V5.7H9V5V4.3H7V5ZM15 5V5.7H17V5V4.3H15V5ZM7 21V20.3C6.28203 20.3 5.7 19.718 5.7 19H5H4.3C4.3 20.4912 5.50883 21.7 7 21.7V21ZM19 19H18.3C18.3 19.718 17.718 20.3 17 20.3V21V21.7C18.4912 21.7 19.7 20.4912 19.7 19H19ZM19 7H19.7C19.7 5.50883 18.4912 4.3 17 4.3V5V5.7C17.718 5.7 18.3 6.28203 18.3 7H19ZM5 7H5.7C5.7 6.28203 6.28203 5.7 7 5.7V5V4.3C5.50883 4.3 4.3 5.50883 4.3 7H5ZM9 14L8.50503 14.495L10.505 16.495L11 16L11.495 15.505L9.49497 13.505L9 14ZM11 16L11.495 16.495L15.495 12.495L15 12L14.505 11.505L10.505 15.505L11 16ZM11 3V3.7H13V3V2.3H11V3ZM13 7V6.3H11V7V7.7H13V7ZM11 7V6.3C10.282 6.3 9.7 5.71797 9.7 5H9H8.3C8.3 6.49117 9.50883 7.7 11 7.7V7ZM15 5H14.3C14.3 5.71797 13.718 6.3 13 6.3V7V7.7C14.4912 7.7 15.7 6.49117 15.7 5H15ZM13 3V3.7C13.718 3.7 14.3 4.28203 14.3 5H15H15.7C15.7 3.50883 14.4912 2.3 13 2.3V3ZM11 3V2.3C9.50883 2.3 8.3 3.50883 8.3 5H9H9.7C9.7 4.28203 10.282 3.7 11 3.7V3Z" fill="currentColor"/>
</svg>
