<svg width="32" height="32" viewBox="0 0 32 32" fill="none" xmlns="http://www.w3.org/2000/svg">
<path d="M19.9987 22.6667H26.6654L24.7921 20.7934C24.2841 20.2854 23.9987 19.5964 23.9987 18.8779V14.6667C23.9987 11.1834 21.7725 8.22012 18.6654 7.12189V6.66667C18.6654 5.19391 17.4715 4 15.9987 4C14.5259 4 13.332 5.19391 13.332 6.66667V7.12189C10.2249 8.22012 7.9987 11.1834 7.9987 14.6667V18.8779C7.9987 19.5964 7.7133 20.2854 7.20527 20.7934L5.33203 22.6667H11.9987M19.9987 22.6667V24C19.9987 26.2091 18.2078 28 15.9987 28C13.7896 28 11.9987 26.2091 11.9987 24V22.6667M19.9987 22.6667H11.9987" stroke="currentColor" stroke-width="2" stroke-linecap="round" stroke-linejoin="round"/>
</svg>
