<svg width="28" height="29" viewBox="0 0 28 29" fill="none" xmlns="http://www.w3.org/2000/svg">
<path d="M3.69824 9.39844L13.9999 15.3601L24.2315 9.4334" stroke="currentColor" stroke-width="1.75" stroke-linecap="round" stroke-linejoin="round"/>
<path d="M14 25.9293V15.3477" stroke="currentColor" stroke-width="1.75" stroke-linecap="round" stroke-linejoin="round"/>
<path d="M25.2119 11.4177V18.0211C25.2119 18.0794 25.2119 18.1261 25.2002 18.1844C24.3836 17.4727 23.3336 17.0528 22.1669 17.0528C21.0702 17.0528 20.0552 17.4378 19.2502 18.0794C18.1769 18.9311 17.5002 20.2494 17.5002 21.7194C17.5002 22.5944 17.7452 23.4228 18.1769 24.1228C18.2819 24.3094 18.4102 24.4844 18.5502 24.6478L16.4152 25.8261C15.0852 26.5728 12.9152 26.5728 11.5852 25.8261L5.35522 22.3728C3.94355 21.5911 2.78857 19.6311 2.78857 18.0211V11.4177C2.78857 9.80774 3.94355 7.84776 5.35522 7.06609L11.5852 3.61273C12.9152 2.86607 15.0852 2.86607 16.4152 3.61273L22.6452 7.06609C24.0569 7.84776 25.2119 9.80774 25.2119 11.4177Z" stroke="currentColor" stroke-width="1.75" stroke-linecap="round" stroke-linejoin="round"/>
<path d="M26.8333 21.7194C26.8333 23.1194 26.215 24.3677 25.2467 25.2194C24.4184 25.9427 23.345 26.3861 22.1667 26.3861C19.5883 26.3861 17.5 24.2977 17.5 21.7194C17.5 20.2494 18.1767 18.9311 19.25 18.0794C20.055 17.4377 21.07 17.0527 22.1667 17.0527C24.745 17.0527 26.8333 19.1411 26.8333 21.7194Z" stroke="currentColor" stroke-width="1.75" stroke-miterlimit="10" stroke-linecap="round" stroke-linejoin="round"/>
<path d="M22.4583 20.2617V22.0117L21 22.8867" stroke="currentColor" stroke-width="1.75" stroke-miterlimit="10" stroke-linecap="round" stroke-linejoin="round"/>
</svg>
