<svg width="14" height="14" viewBox="0 0 14 14" fill="none" xmlns="http://www.w3.org/2000/svg">
<path d="M3.90835 10.5001H2.42085C1.58669 10.5001 1.16667 10.0801 1.16667 9.2459V2.42093C1.16667 1.58676 1.58669 1.16675 2.42085 1.16675H4.92918C5.76335 1.16675 6.18332 1.58676 6.18332 2.42093V3.50008" stroke="currentColor" stroke-width="0.0625em" stroke-miterlimit="10" stroke-linecap="round" stroke-linejoin="round"/>
<path d="M10.1325 4.91166V11.4217C10.1325 12.3608 9.66585 12.8333 8.72668 12.8333H5.32C4.38083 12.8333 3.90834 12.3608 3.90834 11.4217V4.91166C3.90834 3.97249 4.38083 3.5 5.32 3.5H8.72668C9.66585 3.5 10.1325 3.97249 10.1325 4.91166Z" stroke="currentColor" stroke-width="0.0625em" stroke-miterlimit="10" stroke-linecap="round" stroke-linejoin="round"/>
<path d="M7.81668 3.50008V2.42093C7.81668 1.58676 8.23666 1.16675 9.07083 1.16675H11.5792C12.4133 1.16675 12.8333 1.58676 12.8333 2.42093V9.2459C12.8333 10.0801 12.4133 10.5001 11.5792 10.5001H10.1325" stroke="currentColor" stroke-width="0.0625em" stroke-miterlimit="10" stroke-linecap="round" stroke-linejoin="round"/>
<path d="M5.83333 6.41675H8.16666" stroke="currentColor" stroke-width="0.0625em" stroke-miterlimit="10" stroke-linecap="round" stroke-linejoin="round"/>
<path d="M5.83333 8.16675H8.16666" stroke="currentColor" stroke-width="0.0625em" stroke-miterlimit="10" stroke-linecap="round" stroke-linejoin="round"/>
<path d="M7 12.8333V11.0833" stroke="currentColor" stroke-width="0.0625em" stroke-miterlimit="10" stroke-linecap="round" stroke-linejoin="round"/>
</svg>
