<svg width="10" height="10" viewBox="0 0 10 10" fill="none" xmlns="http://www.w3.org/2000/svg">
<path d="M6.97959 1.48301V0.833008C6.97959 0.662174 6.83792 0.520508 6.66709 0.520508C6.49625 0.520508 6.35459 0.662174 6.35459 0.833008V1.45801H3.64625V0.833008C3.64625 0.662174 3.50459 0.520508 3.33375 0.520508C3.16292 0.520508 3.02125 0.662174 3.02125 0.833008V1.48301C1.89625 1.58717 1.35042 2.25801 1.26709 3.25384C1.25875 3.37467 1.35875 3.47467 1.47542 3.47467H8.52542C8.64625 3.47467 8.74625 3.37051 8.73375 3.25384C8.65042 2.25801 8.10459 1.58717 6.97959 1.48301Z" fill="currentColor"/>
<path d="M8.33333 4.09961H1.66667C1.4375 4.09961 1.25 4.28711 1.25 4.51628V7.08294C1.25 8.33294 1.875 9.16628 3.33333 9.16628H6.66667C8.125 9.16628 8.75 8.33294 8.75 7.08294V4.51628C8.75 4.28711 8.5625 4.09961 8.33333 4.09961ZM3.8375 7.58711C3.81667 7.60378 3.79583 7.62461 3.775 7.63711C3.75 7.65378 3.725 7.66628 3.7 7.67461C3.675 7.68711 3.65 7.69544 3.625 7.69961C3.59583 7.70378 3.57083 7.70794 3.54167 7.70794C3.4875 7.70794 3.43333 7.69544 3.38333 7.67461C3.32917 7.65378 3.2875 7.62461 3.24583 7.58711C3.17083 7.50794 3.125 7.39961 3.125 7.29128C3.125 7.18294 3.17083 7.07461 3.24583 6.99544C3.2875 6.95794 3.32917 6.92878 3.38333 6.90794C3.45833 6.87461 3.54167 6.86628 3.625 6.88294C3.65 6.88711 3.675 6.89544 3.7 6.90794C3.725 6.91628 3.75 6.92878 3.775 6.94544C3.79583 6.96211 3.81667 6.97878 3.8375 6.99544C3.9125 7.07461 3.95833 7.18294 3.95833 7.29128C3.95833 7.39961 3.9125 7.50794 3.8375 7.58711ZM3.8375 6.12878C3.75833 6.20378 3.65 6.24961 3.54167 6.24961C3.43333 6.24961 3.325 6.20378 3.24583 6.12878C3.17083 6.04961 3.125 5.94128 3.125 5.83294C3.125 5.72461 3.17083 5.61628 3.24583 5.53711C3.3625 5.42044 3.54583 5.38294 3.7 5.44961C3.75417 5.47044 3.8 5.49961 3.8375 5.53711C3.9125 5.61628 3.95833 5.72461 3.95833 5.83294C3.95833 5.94128 3.9125 6.04961 3.8375 6.12878ZM5.29583 7.58711C5.21667 7.66211 5.10833 7.70794 5 7.70794C4.89167 7.70794 4.78333 7.66211 4.70417 7.58711C4.62917 7.50794 4.58333 7.39961 4.58333 7.29128C4.58333 7.18294 4.62917 7.07461 4.70417 6.99544C4.85833 6.84128 5.14167 6.84128 5.29583 6.99544C5.37083 7.07461 5.41667 7.18294 5.41667 7.29128C5.41667 7.39961 5.37083 7.50794 5.29583 7.58711ZM5.29583 6.12878C5.275 6.14544 5.25417 6.16211 5.23333 6.17878C5.20833 6.19544 5.18333 6.20794 5.15833 6.21628C5.13333 6.22878 5.10833 6.23711 5.08333 6.24128C5.05417 6.24544 5.02917 6.24961 5 6.24961C4.89167 6.24961 4.78333 6.20378 4.70417 6.12878C4.62917 6.04961 4.58333 5.94128 4.58333 5.83294C4.58333 5.72461 4.62917 5.61628 4.70417 5.53711C4.74167 5.49961 4.7875 5.47044 4.84167 5.44961C4.99583 5.38294 5.17917 5.42044 5.29583 5.53711C5.37083 5.61628 5.41667 5.72461 5.41667 5.83294C5.41667 5.94128 5.37083 6.04961 5.29583 6.12878ZM6.75417 7.58711C6.675 7.66211 6.56667 7.70794 6.45833 7.70794C6.35 7.70794 6.24167 7.66211 6.1625 7.58711C6.0875 7.50794 6.04167 7.39961 6.04167 7.29128C6.04167 7.18294 6.0875 7.07461 6.1625 6.99544C6.31667 6.84128 6.6 6.84128 6.75417 6.99544C6.82917 7.07461 6.875 7.18294 6.875 7.29128C6.875 7.39961 6.82917 7.50794 6.75417 7.58711ZM6.75417 6.12878C6.73333 6.14544 6.7125 6.16211 6.69167 6.17878C6.66667 6.19544 6.64167 6.20794 6.61667 6.21628C6.59167 6.22878 6.56667 6.23711 6.54167 6.24128C6.5125 6.24544 6.48333 6.24961 6.45833 6.24961C6.35 6.24961 6.24167 6.20378 6.1625 6.12878C6.0875 6.04961 6.04167 5.94128 6.04167 5.83294C6.04167 5.72461 6.0875 5.61628 6.1625 5.53711C6.20417 5.49961 6.24583 5.47044 6.3 5.44961C6.375 5.41628 6.45833 5.40794 6.54167 5.42461C6.56667 5.42878 6.59167 5.43711 6.61667 5.44961C6.64167 5.45794 6.66667 5.47044 6.69167 5.48711C6.7125 5.50378 6.73333 5.52044 6.75417 5.53711C6.82917 5.61628 6.875 5.72461 6.875 5.83294C6.875 5.94128 6.82917 6.04961 6.75417 6.12878Z" fill="currentColor"/>
</svg>
