<svg width="8" height="8" viewBox="0 0 8 8" fill="none" xmlns="http://www.w3.org/2000/svg">
<path d="M2.66669 3.7999C2.66669 4.05657 2.86669 4.26657 3.11002 4.26657H3.61002C3.82335 4.26657 3.99669 4.08324 3.99669 3.8599C3.99669 3.61657 3.89002 3.5299 3.73335 3.47324L2.93335 3.19324C2.77335 3.13657 2.66669 3.0499 2.66669 2.80657C2.66669 2.58324 2.84002 2.3999 3.05335 2.3999H3.55335C3.80002 2.40324 4.00002 2.6099 4.00002 2.86657" stroke="#667085" stroke-width="0.458333" stroke-linecap="round" stroke-linejoin="round"/>
<path d="M3.33334 4.2832V4.52987" stroke="#667085" stroke-width="0.458333" stroke-linecap="round" stroke-linejoin="round"/>
<path d="M3.33334 2.13672V2.39672" stroke="#667085" stroke-width="0.458333" stroke-linecap="round" stroke-linejoin="round"/>
<path d="M3.32999 5.99317C4.80091 5.99317 5.99332 4.80076 5.99332 3.32984C5.99332 1.85892 4.80091 0.666504 3.32999 0.666504C1.85907 0.666504 0.666656 1.85892 0.666656 3.32984C0.666656 4.80076 1.85907 5.99317 3.32999 5.99317Z" stroke="#667085" stroke-width="0.458333" stroke-linecap="round" stroke-linejoin="round"/>
<path d="M4.32666 6.62683C4.62666 7.05016 5.11666 7.32683 5.67666 7.32683C6.58666 7.32683 7.32666 6.58683 7.32666 5.67683C7.32666 5.1235 7.05333 4.6335 6.63666 4.3335" stroke="#667085" stroke-width="0.458333" stroke-linecap="round" stroke-linejoin="round"/>
</svg>
