<svg width="26" height="26" viewBox="0 0 26 26" fill="none" xmlns="http://www.w3.org/2000/svg">
<g clip-path="url(#clip0_2401_14705)">
<path d="M4.78906 0.673887C4.78906 0.178719 5.19748 -0.222656 5.70138 -0.222656H19.3856L23.947 4.26011V24.8808C23.947 25.376 23.5385 25.7773 23.0347 25.7773H5.70138C5.19753 25.7773 4.78911 25.376 4.78911 24.8808L4.78906 0.673887Z" fill="#EAECF0"/>
<path d="M19.2734 0V3.58622C19.2734 4.08134 19.6749 4.48277 20.17 4.48277H23.7562L19.2734 0Z" fill="#98A2B3"/>
<rect x="1.5957" y="9" width="17.5193" height="8.51934" rx="1.37533" fill="#F9FAFB"/>
<path d="M4.44624 15.2598V11.0598H6.35424C6.81024 11.0598 7.21224 11.1478 7.56024 11.3238C7.90824 11.4958 8.18024 11.7378 8.37624 12.0498C8.57224 12.3618 8.67024 12.7318 8.67024 13.1598C8.67024 13.5838 8.57224 13.9538 8.37624 14.2698C8.18024 14.5818 7.90824 14.8258 7.56024 15.0018C7.21224 15.1738 6.81024 15.2598 6.35424 15.2598H4.44624ZM5.41824 14.4618H6.30624C6.58624 14.4618 6.82824 14.4098 7.03224 14.3058C7.24024 14.1978 7.40024 14.0458 7.51224 13.8498C7.62824 13.6538 7.68624 13.4238 7.68624 13.1598C7.68624 12.8918 7.62824 12.6618 7.51224 12.4698C7.40024 12.2738 7.24024 12.1238 7.03224 12.0198C6.82824 11.9118 6.58624 11.8578 6.30624 11.8578H5.41824V14.4618ZM10.2973 12.7518H12.3193V13.5078H10.2973V12.7518ZM10.3693 14.4798H12.6553V15.2598H9.40327V11.0598H12.5773V11.8398H10.3693V14.4798ZM14.3287 12.9498H16.3447V13.7298H14.3287V12.9498ZM14.4007 15.2598H13.4287V11.0598H16.6027V11.8398H14.4007V15.2598Z" fill="black"/>
</g>
<defs>
<clipPath id="clip0_2401_14705">
<rect width="26" height="26" fill="white"/>
</clipPath>
</defs>
</svg>
