<svg width="26" height="26" viewBox="0 0 26 26" fill="none" xmlns="http://www.w3.org/2000/svg">
<g clip-path="url(#clip0_2401_14040)">
<path d="M4.78906 0.673887C4.78906 0.178719 5.19748 -0.222656 5.70138 -0.222656H19.3856L23.947 4.26011V24.8808C23.947 25.376 23.5385 25.7773 23.0347 25.7773H5.70138C5.19753 25.7773 4.78911 25.376 4.78911 24.8808L4.78906 0.673887Z" fill="#EAECF0"/>
<path d="M19.2734 0V3.58622C19.2734 4.08134 19.6749 4.48277 20.17 4.48277H23.7562L19.2734 0Z" fill="#98A2B3"/>
<rect x="1.5957" y="8" width="19.5193" height="10.5193" rx="1.37533" fill="#155EEF"/>
<path d="M4.64351 15.2598V11.0598H6.55151C7.00751 11.0598 7.40951 11.1478 7.75751 11.3238C8.10551 11.4958 8.37751 11.7378 8.57351 12.0498C8.76951 12.3618 8.86751 12.7318 8.86751 13.1598C8.86751 13.5838 8.76951 13.9538 8.57351 14.2698C8.37751 14.5818 8.10551 14.8258 7.75751 15.0018C7.40951 15.1738 7.00751 15.2598 6.55151 15.2598H4.64351ZM5.61551 14.4618H6.50351C6.78351 14.4618 7.02551 14.4098 7.22951 14.3058C7.43751 14.1978 7.59751 14.0458 7.70951 13.8498C7.82551 13.6538 7.88351 13.4238 7.88351 13.1598C7.88351 12.8918 7.82551 12.6618 7.70951 12.4698C7.59751 12.2738 7.43751 12.1238 7.22951 12.0198C7.02551 11.9118 6.78351 11.8578 6.50351 11.8578H5.61551V14.4618ZM11.6405 15.3318C11.3085 15.3318 11.0005 15.2778 10.7165 15.1698C10.4365 15.0618 10.1925 14.9098 9.98454 14.7138C9.78054 14.5178 9.62054 14.2878 9.50454 14.0238C9.39254 13.7598 9.33654 13.4718 9.33654 13.1598C9.33654 12.8478 9.39254 12.5598 9.50454 12.2958C9.62054 12.0318 9.78254 11.8018 9.99054 11.6058C10.1985 11.4098 10.4425 11.2578 10.7225 11.1498C11.0025 11.0418 11.3065 10.9878 11.6345 10.9878C11.9665 10.9878 12.2705 11.0418 12.5465 11.1498C12.8265 11.2578 13.0685 11.4098 13.2725 11.6058C13.4805 11.8018 13.6425 12.0318 13.7585 12.2958C13.8745 12.5558 13.9325 12.8438 13.9325 13.1598C13.9325 13.4718 13.8745 13.7618 13.7585 14.0298C13.6425 14.2938 13.4805 14.5238 13.2725 14.7198C13.0685 14.9118 12.8265 15.0618 12.5465 15.1698C12.2705 15.2778 11.9685 15.3318 11.6405 15.3318ZM11.6345 14.5038C11.8225 14.5038 11.9945 14.4718 12.1505 14.4078C12.3105 14.3438 12.4505 14.2518 12.5705 14.1318C12.6905 14.0118 12.7825 13.8698 12.8465 13.7058C12.9145 13.5418 12.9485 13.3598 12.9485 13.1598C12.9485 12.9598 12.9145 12.7778 12.8465 12.6138C12.7825 12.4498 12.6905 12.3078 12.5705 12.1878C12.4545 12.0678 12.3165 11.9758 12.1565 11.9118C11.9965 11.8478 11.8225 11.8158 11.6345 11.8158C11.4465 11.8158 11.2725 11.8478 11.1125 11.9118C10.9565 11.9758 10.8185 12.0678 10.6985 12.1878C10.5785 12.3078 10.4845 12.4498 10.4165 12.6138C10.3525 12.7778 10.3205 12.9598 10.3205 13.1598C10.3205 13.3558 10.3525 13.5378 10.4165 13.7058C10.4845 13.8698 10.5765 14.0118 10.6925 14.1318C10.8125 14.2518 10.9525 14.3438 11.1125 14.4078C11.2725 14.4718 11.4465 14.5038 11.6345 14.5038ZM16.673 15.3318C16.349 15.3318 16.047 15.2798 15.767 15.1758C15.491 15.0678 15.251 14.9158 15.047 14.7198C14.843 14.5238 14.683 14.2938 14.567 14.0298C14.455 13.7658 14.399 13.4758 14.399 13.1598C14.399 12.8438 14.455 12.5538 14.567 12.2898C14.683 12.0258 14.843 11.7958 15.047 11.5998C15.255 11.4038 15.497 11.2538 15.773 11.1498C16.049 11.0418 16.351 10.9878 16.679 10.9878C17.043 10.9878 17.371 11.0518 17.663 11.1798C17.959 11.3038 18.207 11.4878 18.407 11.7318L17.783 12.3078C17.639 12.1438 17.479 12.0218 17.303 11.9418C17.127 11.8578 16.935 11.8158 16.727 11.8158C16.531 11.8158 16.351 11.8478 16.187 11.9118C16.023 11.9758 15.881 12.0678 15.761 12.1878C15.641 12.3078 15.547 12.4498 15.479 12.6138C15.415 12.7778 15.383 12.9598 15.383 13.1598C15.383 13.3598 15.415 13.5418 15.479 13.7058C15.547 13.8698 15.641 14.0118 15.761 14.1318C15.881 14.2518 16.023 14.3438 16.187 14.4078C16.351 14.4718 16.531 14.5038 16.727 14.5038C16.935 14.5038 17.127 14.4638 17.303 14.3838C17.479 14.2998 17.639 14.1738 17.783 14.0058L18.407 14.5818C18.207 14.8258 17.959 15.0118 17.663 15.1398C17.371 15.2678 17.041 15.3318 16.673 15.3318Z" fill="white"/>
</g>
<defs>
<clipPath id="clip0_2401_14040">
<rect width="26" height="26" fill="white"/>
</clipPath>
</defs>
</svg>
