<svg width="20" height="20" viewBox="0 0 20 20" fill="none" xmlns="http://www.w3.org/2000/svg">
<path fill-rule="evenodd" clip-rule="evenodd" d="M9.21875 4.5875C9.21875 3.78125 8.51875 3.125 7.65625 3.125C6.79375 3.125 6.09375 3.78125 6.09375 4.5875C6.09375 5.395 6.79375 6.05 7.65625 6.05C8.51875 6.05 9.21875 5.395 9.21875 4.5875ZM9.21875 15.4125C9.21875 14.605 8.51875 13.95 7.65625 13.95C6.79375 13.95 6.09375 14.605 6.09375 15.4125C6.09375 16.2187 6.79375 16.875 7.65625 16.875C8.51875 16.875 9.21875 16.2187 9.21875 15.4125ZM7.65625 8.5375C8.51875 8.5375 9.21875 9.19375 9.21875 10C9.21875 10.8062 8.51875 11.4625 7.65625 11.4625C6.79375 11.4625 6.09375 10.8062 6.09375 10C6.09375 9.19375 6.79375 8.5375 7.65625 8.5375ZM13.9062 4.5875C13.9062 3.78125 13.2062 3.125 12.3438 3.125C11.4813 3.125 10.7812 3.78125 10.7812 4.5875C10.7812 5.395 11.4813 6.05 12.3438 6.05C13.2062 6.05 13.9062 5.395 13.9062 4.5875ZM12.3438 13.95C13.2062 13.95 13.9062 14.605 13.9062 15.4125C13.9062 16.2187 13.2062 16.875 12.3438 16.875C11.4813 16.875 10.7812 16.2187 10.7812 15.4125C10.7812 14.605 11.4813 13.95 12.3438 13.95ZM13.9062 10C13.9062 9.19375 13.2062 8.5375 12.3438 8.5375C11.4813 8.5375 10.7812 9.19375 10.7812 10C10.7812 10.8062 11.4813 11.4625 12.3438 11.4625C13.2062 11.4625 13.9062 10.8062 13.9062 10Z" fill="currentColor"/>
</svg>
