<svg width="15" height="15" viewBox="0 0 15 15" fill="none" xmlns="http://www.w3.org/2000/svg">
<path fill-rule="evenodd" clip-rule="evenodd" d="M1.00377 3.95694C1.32104 3.82097 1.68846 3.96794 1.82444 4.28521L1.24997 4.53141C1.82444 4.28521 1.82453 4.28542 1.82444 4.28521L1.82411 4.28446C1.82407 4.28435 1.82394 4.28406 1.82411 4.28446L1.82656 4.29C1.82907 4.29564 1.83337 4.30521 1.83949 4.31846C1.85174 4.34497 1.87123 4.38615 1.8981 4.43989C1.95189 4.54747 2.03496 4.70482 2.14836 4.89532C2.37586 5.27752 2.72149 5.78656 3.19234 6.29363C3.30333 6.41312 3.42078 6.53212 3.54483 6.64893C3.55002 6.65368 3.55514 6.65849 3.56021 6.66337C4.48814 7.53231 5.78267 8.28143 7.5 8.28143C8.25556 8.28143 8.92394 8.13718 9.51306 7.90531C10.2793 7.60368 10.9216 7.14962 11.4472 6.65624C12.0407 6.09915 12.4767 5.50019 12.7645 5.03828C12.9079 4.80823 13.0129 4.61465 13.0812 4.48084C13.1152 4.41401 13.1401 4.3623 13.1557 4.32867C13.1636 4.31186 13.1691 4.29958 13.1724 4.29221L13.1755 4.28521C13.3116 3.96812 13.679 3.82101 13.9962 3.95694C14.3134 4.09292 14.4604 4.46034 14.3244 4.77761L13.75 4.53141C14.3244 4.77761 14.3245 4.77747 14.3244 4.77761L14.3231 4.78075L14.3209 4.78589L14.3137 4.80204C14.3077 4.81537 14.2994 4.83377 14.2886 4.85686C14.2671 4.90302 14.2359 4.968 14.1947 5.04874C14.1124 5.21009 13.99 5.43521 13.8254 5.69933C13.5737 6.10318 13.22 6.60406 12.756 7.10912L13.2544 7.60749C13.4985 7.85156 13.4985 8.24731 13.2544 8.49137C13.0103 8.73543 12.6146 8.73543 12.3705 8.49137L11.8454 7.96624C11.4927 8.25112 11.0981 8.51974 10.6599 8.75156L11.1488 9.50306C11.3371 9.79237 11.2552 10.1795 10.9658 10.3678C10.6765 10.5561 10.2894 10.4741 10.1011 10.1848L9.48519 9.23818C9.06081 9.3683 8.6075 9.46049 8.125 9.50368V10.4689C8.125 10.8141 7.84513 11.0939 7.5 11.0939C7.15481 11.0939 6.875 10.8141 6.875 10.4689V9.50381C6.39081 9.46056 5.93759 9.36818 5.51459 9.23843L4.89884 10.1848C4.71058 10.4741 4.32343 10.5561 4.03411 10.3678C3.74478 10.1795 3.66285 9.79237 3.85111 9.50306L4.34011 8.75149C3.90253 8.51993 3.50778 8.25124 3.15466 7.96612L2.62941 8.49137C2.38534 8.73543 1.98961 8.73543 1.74553 8.49137C1.50145 8.24731 1.50145 7.85156 1.74553 7.60749L2.24393 7.10912C1.71581 6.53424 1.32983 5.96406 1.07424 5.53468C0.9435 5.31503 0.845907 5.13059 0.780063 4.99891C0.747119 4.93302 0.722057 4.8802 0.7047 4.84262C0.696019 4.82384 0.689263 4.80884 0.684407 4.79792L0.678538 4.78462L0.676669 4.78031L0.676 4.77876L0.675732 4.77814C0.675613 4.77786 0.675507 4.77761 1.24997 4.53141L0.675732 4.77814C0.539758 4.46087 0.6865 4.09292 1.00377 3.95694Z" fill="currentColor"/>
</svg>
