<svg width="24" height="24" viewBox="0 0 24 24" fill="none" xmlns="http://www.w3.org/2000/svg">
<path d="M13 2H6C5.46957 2 4.96086 2.21071 4.58579 2.58579C4.21071 2.96086 4 3.46957 4 4V20C4 20.5304 4.21071 21.0391 4.58579 21.4142C4.96086 21.7893 5.46957 22 6 22H18C18.5304 22 19.0391 21.7893 19.4142 21.4142C19.7893 21.0391 20 20.5304 20 20V9M13 2L20 9M13 2V9H20" stroke="white" stroke-width="1.5" stroke-linecap="round" stroke-linejoin="round"/>
<path d="M9.67383 16.6026C9.67383 17.5045 10.366 18.2316 11.2259 18.2316H12.9806C13.7287 18.2316 14.3369 17.5954 14.3369 16.8124C14.3369 15.9594 13.9664 15.6588 13.4141 15.4631L10.5967 14.4843C10.0444 14.2886 9.67383 13.9879 9.67383 13.135C9.67383 12.352 10.2821 11.7158 11.0301 11.7158H12.7849C13.6448 11.7158 14.3369 12.4429 14.3369 13.3448" stroke="white" stroke-width="1.25" stroke-linecap="round" stroke-linejoin="round"/>
<path d="M12 10.7783V19.1677" stroke="white" stroke-width="1.25" stroke-linecap="round" stroke-linejoin="round"/>
</svg>
