<svg width="33" height="33" viewBox="0 0 33 33" fill="none" xmlns="http://www.w3.org/2000/svg">
<path d="M13.9492 23.1355C13.9492 24.318 14.8567 25.2714 15.9842 25.2714H18.2851C19.2659 25.2714 20.0634 24.4372 20.0634 23.4105C20.0634 22.2922 19.5776 21.898 18.8534 21.6414L15.1592 20.358C14.4351 20.1014 13.9492 19.7072 13.9492 18.5889C13.9492 17.5622 14.7467 16.728 15.7276 16.728H18.0284C19.1559 16.728 20.0634 17.6814 20.0634 18.8639" stroke="currentColor" stroke-width="0.0625em" stroke-linecap="round" stroke-linejoin="round"/>
<path d="M17 15.5V26.5" stroke="currentColor" stroke-width="0.0625em" stroke-linecap="round" stroke-linejoin="round"/>
<path d="M17.875 2.75H8.25C7.52065 2.75 6.82118 3.03973 6.30546 3.55546C5.78973 4.07118 5.5 4.77065 5.5 5.5V27.5C5.5 28.2293 5.78973 28.9288 6.30546 29.4445C6.82118 29.9603 7.52065 30.25 8.25 30.25H24.75C25.4793 30.25 26.1788 29.9603 26.6945 29.4445C27.2103 28.9288 27.5 28.2293 27.5 27.5V12.375M17.875 2.75L27.5 12.375M17.875 2.75V12.375H27.5" stroke="currentColor" stroke-width="0.0625em" stroke-linecap="round" stroke-linejoin="round"/>
</svg>
