<svg width="16" height="17" viewBox="0 0 16 17" fill="none" xmlns="http://www.w3.org/2000/svg">
<path d="M3.6 2.08398H12.4C13.1333 2.08398 13.7333 2.68398 13.7333 3.41732V4.88398C13.7333 5.41732 13.4 6.08398 13.0667 6.41732L10.2 8.95065C9.8 9.28398 9.53333 9.95065 9.53333 10.484V13.3507C9.53333 13.7507 9.26666 14.284 8.93333 14.484L8 15.084C7.13333 15.6173 5.93333 15.0173 5.93333 13.9507V10.4173C5.93333 9.95065 5.66666 9.35065 5.4 9.01732L2.86666 6.35065C2.53333 6.01732 2.26666 5.41732 2.26666 5.01732V3.48398C2.26666 2.68398 2.86666 2.08398 3.6 2.08398Z" stroke="currentColor" stroke-width="1.5" stroke-miterlimit="10" stroke-linecap="round" stroke-linejoin="round"/>
<path d="M7.28667 2.08398L4 7.35065" stroke="currentColor" stroke-width="1.5" stroke-miterlimit="10" stroke-linecap="round" stroke-linejoin="round"/>
</svg>
