<svg width="60" height="60" viewBox="0 0 60 60" fill="none" xmlns="http://www.w3.org/2000/svg">
<path d="M22.5 7.5V52.5H37.5V7.5H22.5ZM20 7.5H8.75C6.67893 7.5 5 9.17893 5 11.25V48.75C5 50.8211 6.67893 52.5 8.75 52.5H20V7.5ZM40 7.5V52.5H51.25C53.3211 52.5 55 50.8211 55 48.75V11.25C55 9.17893 53.3211 7.5 51.25 7.5H40ZM2.5 11.25C2.5 7.79822 5.29822 5 8.75 5H51.25C54.7018 5 57.5 7.79822 57.5 11.25V48.75C57.5 52.2018 54.7018 55 51.25 55H8.75C5.29822 55 2.5 52.2018 2.5 48.75V11.25ZM10 15H15C16.3807 15 17.5 16.1193 17.5 17.5V20C17.5 21.3807 16.3807 22.5 15 22.5H10C8.61929 22.5 7.5 21.3807 7.5 20V17.5C7.5 16.1193 8.61929 15 10 15ZM10 25H15C16.3807 25 17.5 26.1193 17.5 27.5V30C17.5 31.3807 16.3807 32.5 15 32.5H10C8.61929 32.5 7.5 31.3807 7.5 30V27.5C7.5 26.1193 8.61929 25 10 25ZM27.5 15H32.5C33.8807 15 35 16.1193 35 17.5V20C35 21.3807 33.8807 22.5 32.5 22.5H27.5C26.1193 22.5 25 21.3807 25 20V17.5C25 16.1193 26.1193 15 27.5 15ZM45 15H50C51.3807 15 52.5 16.1193 52.5 17.5V20C52.5 21.3807 51.3807 22.5 50 22.5H45C43.6193 22.5 42.5 21.3807 42.5 20V17.5C42.5 16.1193 43.6193 15 45 15ZM45 25H50C51.3807 25 52.5 26.1193 52.5 27.5V30C52.5 31.3807 51.3807 32.5 50 32.5H45C43.6193 32.5 42.5 31.3807 42.5 30V27.5C42.5 26.1193 43.6193 25 45 25ZM45 35H50C51.3807 35 52.5 36.1193 52.5 37.5V40C52.5 41.3807 51.3807 42.5 50 42.5H45C43.6193 42.5 42.5 41.3807 42.5 40V37.5C42.5 36.1193 43.6193 35 45 35ZM10 17.5V20H15V17.5H10ZM10 27.5V30H15V27.5H10ZM27.5 17.5V20H32.5V17.5H27.5ZM45 17.5V20H50V17.5H45ZM45 27.5V30H50V27.5H45ZM45 37.5V40H50V37.5H45ZM8.75 12.5C8.05964 12.5 7.5 11.9404 7.5 11.25C7.5 10.5596 8.05964 10 8.75 10H16.25C16.9404 10 17.5 10.5596 17.5 11.25C17.5 11.9404 16.9404 12.5 16.25 12.5H8.75ZM26.25 12.5C25.5596 12.5 25 11.9404 25 11.25C25 10.5596 25.5596 10 26.25 10H33.75C34.4404 10 35 10.5596 35 11.25C35 11.9404 34.4404 12.5 33.75 12.5H26.25ZM43.75 12.5C43.0596 12.5 42.5 11.9404 42.5 11.25C42.5 10.5596 43.0596 10 43.75 10H51.25C51.9404 10 52.5 10.5596 52.5 11.25C52.5 11.9404 51.9404 12.5 51.25 12.5H43.75Z" fill="currentColor"/>
</svg>
