<svg width="60" height="60" viewBox="0 0 60 60" fill="none" xmlns="http://www.w3.org/2000/svg">
<path d="M26.25 49.75V10.25C26.25 6.5 24.65 5 20.675 5H10.575C6.6 5 5 6.5 5 10.25V49.75C5 53.5 6.6 55 10.575 55H20.675C24.65 55 26.25 53.5 26.25 49.75Z" stroke="currentColor" stroke-width="4" stroke-linecap="round" stroke-linejoin="round"/>
<path d="M55 32.25V10.25C55 6.5 53.4 5 49.425 5H39.325C35.35 5 33.75 6.5 33.75 10.25V32.25C33.75 36 35.35 37.5 39.325 37.5H49.425C53.4 37.5 55 36 55 32.25Z" stroke="currentColor" stroke-width="4" stroke-linecap="round" stroke-linejoin="round"/>
</svg>
