<svg width="33" height="33" viewBox="0 0 33 33" fill="none" xmlns="http://www.w3.org/2000/svg">
<path opacity="0.4" d="M22.2613 2.75H10.7387C5.73375 2.75 2.75 5.73375 2.75 10.7387V22.2475C2.75 27.2663 5.73375 30.25 10.7387 30.25H22.2475C27.2525 30.25 30.2362 27.2663 30.2362 22.2613V10.7387C30.25 5.73375 27.2663 2.75 22.2613 2.75Z" fill="#0068FF"/>
<path d="M21.8486 11.1507C19.8136 9.12945 16.5136 9.12945 14.4923 11.1507C13.0761 12.5532 12.6498 14.5882 13.1998 16.3757L9.96859 19.607C9.74859 19.8407 9.58359 20.2945 9.63859 20.6245L9.84484 22.1232C9.91359 22.6182 10.3811 23.0857 10.8761 23.1545L12.3748 23.3745C12.7048 23.4157 13.1586 23.2782 13.3923 23.0307L13.9561 22.467C14.0936 22.3432 14.0936 22.1232 13.9561 21.9857L12.6223 20.652C12.4298 20.4595 12.4298 20.1295 12.6223 19.9232C12.8148 19.7307 13.1448 19.7307 13.3511 19.9232L14.6848 21.257C14.8086 21.3807 15.0286 21.3807 15.1661 21.257L16.6236 19.8132C18.3973 20.3632 20.4323 19.937 21.8486 18.5345C23.8836 16.4857 23.8836 13.1857 21.8486 11.1507ZM18.2186 16.4995C17.2698 16.4995 16.4998 15.7295 16.4998 14.7807C16.4998 13.832 17.2698 13.062 18.2186 13.062C19.1673 13.062 19.9373 13.832 19.9373 14.7807C19.9373 15.7295 19.1673 16.4995 18.2186 16.4995Z" fill="#0068FF"/>
</svg>
