<svg width="14" height="13" viewBox="0 0 14 13" fill="none" xmlns="http://www.w3.org/2000/svg">
<path d="M11.8636 1.63594C10.0136 -0.201563 7.0136 -0.201563 5.1761 1.63594C3.8886 2.91094 3.5011 4.76094 4.0011 6.38594L1.0636 9.32344C0.863597 9.53594 0.713597 9.94844 0.763597 10.2484L0.951097 11.6109C1.0136 12.0609 1.4386 12.4859 1.8886 12.5484L3.2511 12.7484C3.5511 12.7859 3.9636 12.6609 4.1761 12.4359L4.6886 11.9234C4.8136 11.8109 4.8136 11.6109 4.6886 11.4859L3.4761 10.2734C3.3011 10.0984 3.3011 9.79844 3.4761 9.61094C3.6511 9.43594 3.9511 9.43594 4.1386 9.61094L5.3511 10.8234C5.4636 10.9359 5.6636 10.9359 5.7886 10.8234L7.1136 9.51094C8.7261 10.0109 10.5761 9.62344 11.8636 8.34844C13.7136 6.48594 13.7136 3.48594 11.8636 1.63594ZM8.5636 6.49844C7.7011 6.49844 7.0011 5.79844 7.0011 4.93594C7.0011 4.07344 7.7011 3.37344 8.5636 3.37344C9.4261 3.37344 10.1261 4.07344 10.1261 4.93594C10.1261 5.79844 9.4261 6.49844 8.5636 6.49844Z" fill="currentColor"/>
</svg>
