<svg width="13" height="13" viewBox="0 0 13 13" fill="none" xmlns="http://www.w3.org/2000/svg">
<path d="M10.15 4.45999V7.035C10.15 8.575 9.26998 9.23499 7.94998 9.23499H3.55498C3.32998 9.23499 3.11498 9.21501 2.91498 9.17001C2.78998 9.15001 2.66998 9.11501 2.55998 9.07501C1.80998 8.79501 1.35498 8.145 1.35498 7.035V4.45999C1.35498 2.91999 2.23498 2.26001 3.55498 2.26001H7.94998C9.06998 2.26001 9.87498 2.73501 10.09 3.82001C10.125 4.02001 10.15 4.22499 10.15 4.45999Z" stroke="#12B76A" stroke-width="0.75" stroke-miterlimit="10" stroke-linecap="round" stroke-linejoin="round"/>
<path d="M11.6505 5.96005V8.53506C11.6505 10.0751 10.7705 10.735 9.45053 10.735H5.05553C4.68553 10.735 4.35053 10.6851 4.06053 10.5751C3.46553 10.3551 3.06053 9.90007 2.91553 9.17007C3.11553 9.21507 3.33053 9.23505 3.55553 9.23505H7.95053C9.27053 9.23505 10.1505 8.57506 10.1505 7.03506V4.46005C10.1505 4.22505 10.1305 4.01507 10.0905 3.82007C11.0405 4.02007 11.6505 4.69005 11.6505 5.96005Z" stroke="#12B76A" stroke-width="0.75" stroke-miterlimit="10" stroke-linecap="round" stroke-linejoin="round"/>
<path d="M5.74921 7.06995C6.47822 7.06995 7.06921 6.47895 7.06921 5.74994C7.06921 5.02092 6.47822 4.42993 5.74921 4.42993C5.02019 4.42993 4.4292 5.02092 4.4292 5.74994C4.4292 6.47895 5.02019 7.06995 5.74921 7.06995Z" stroke="#12B76A" stroke-width="0.75" stroke-miterlimit="10" stroke-linecap="round" stroke-linejoin="round"/>
<path d="M2.89001 4.65002V6.85004" stroke="#12B76A" stroke-width="0.75" stroke-miterlimit="10" stroke-linecap="round" stroke-linejoin="round"/>
<path d="M8.61084 4.65015V6.85016" stroke="#12B76A" stroke-width="0.75" stroke-miterlimit="10" stroke-linecap="round" stroke-linejoin="round"/>
</svg>
