<svg width="33" height="33" viewBox="0 0 33 33" fill="none" xmlns="http://www.w3.org/2000/svg">
<path d="M27.4995 11.3442V24.7505C27.4995 28.8755 25.0383 30.2505 21.9995 30.2505H10.9995C7.96076 30.2505 5.49951 28.8755 5.49951 24.7505V11.3442C5.49951 6.87549 7.96076 5.84424 10.9995 5.84424C10.9995 6.69674 11.3432 7.46673 11.907 8.03048C12.4707 8.59423 13.2408 8.93799 14.0933 8.93799H18.9058C20.6108 8.93799 21.9995 7.54924 21.9995 5.84424C25.0383 5.84424 27.4995 6.87549 27.4995 11.3442Z" stroke="currentColor" stroke-width="0.0625em" stroke-linecap="round" stroke-linejoin="round"/>
<path d="M22.0005 5.84326C22.0005 7.54826 20.6117 8.93701 18.9067 8.93701H14.0942C13.2417 8.93701 12.4717 8.59326 11.908 8.02951C11.3442 7.46576 11.0005 6.69576 11.0005 5.84326C11.0005 4.13826 12.3892 2.74951 14.0942 2.74951H18.9067C19.7592 2.74951 20.5293 3.09327 21.093 3.65702C21.6568 4.22077 22.0005 4.99076 22.0005 5.84326Z" stroke="currentColor" stroke-width="0.0625em" stroke-linecap="round" stroke-linejoin="round"/>
<path d="M11.0005 17.8745H16.5005" stroke="currentColor" stroke-width="0.0625em" stroke-linecap="round" stroke-linejoin="round"/>
<path d="M11.0005 23.3745H22.0005" stroke="currentColor" stroke-width="0.0625em" stroke-linecap="round" stroke-linejoin="round"/>
</svg>
