<svg width="16" height="16" viewBox="0 0 16 16" fill="none" xmlns="http://www.w3.org/2000/svg">
<path d="M5.3335 3.8335C5.06016 3.8335 4.8335 3.60683 4.8335 3.3335V1.3335C4.8335 1.06016 5.06016 0.833496 5.3335 0.833496C5.60683 0.833496 5.8335 1.06016 5.8335 1.3335V3.3335C5.8335 3.60683 5.60683 3.8335 5.3335 3.8335Z" fill="currentColor"/>
<path d="M10.6665 3.8335C10.3932 3.8335 10.1665 3.60683 10.1665 3.3335V1.3335C10.1665 1.06016 10.3932 0.833496 10.6665 0.833496C10.9398 0.833496 11.1665 1.06016 11.1665 1.3335V3.3335C11.1665 3.60683 10.9398 3.8335 10.6665 3.8335Z" fill="currentColor"/>
<path d="M9.99984 9.1665H4.6665C4.39317 9.1665 4.1665 8.93984 4.1665 8.6665C4.1665 8.39317 4.39317 8.1665 4.6665 8.1665H9.99984C10.2732 8.1665 10.4998 8.39317 10.4998 8.6665C10.4998 8.93984 10.2732 9.1665 9.99984 9.1665Z" fill="currentColor"/>
<path d="M7.99984 11.8335H4.6665C4.39317 11.8335 4.1665 11.6068 4.1665 11.3335C4.1665 11.0602 4.39317 10.8335 4.6665 10.8335H7.99984C8.27317 10.8335 8.49984 11.0602 8.49984 11.3335C8.49984 11.6068 8.27317 11.8335 7.99984 11.8335Z" fill="currentColor"/>
<path d="M10 15.1668H6C2.25333 15.1668 1.5 13.4002 1.5 10.5468V6.4335C1.5 3.2735 2.56667 1.98683 5.30667 1.8335H10.6667C10.6733 1.8335 10.6867 1.8335 10.6933 1.8335C13.4333 1.98683 14.5 3.2735 14.5 6.4335V10.5468C14.5 13.4002 13.7467 15.1668 10 15.1668ZM5.33333 2.8335C3.46667 2.94016 2.5 3.52683 2.5 6.4335V10.5468C2.5 13.1002 2.98667 14.1668 6 14.1668H10C13.0133 14.1668 13.5 13.1002 13.5 10.5468V6.4335C13.5 3.5335 12.54 2.94016 10.6533 2.8335H5.33333Z" fill="currentColor"/>
</svg>
