<svg width="26" height="26" viewBox="0 0 26 26" fill="none" xmlns="http://www.w3.org/2000/svg">
<g clip-path="url(#clip0_2401_14153)">
<path d="M4.78906 0.673887C4.78906 0.178719 5.19748 -0.222656 5.70138 -0.222656H19.3856L23.947 4.26011V24.8808C23.947 25.376 23.5385 25.7773 23.0347 25.7773H5.70138C5.19753 25.7773 4.78911 25.376 4.78911 24.8808L4.78906 0.673887Z" fill="#EAECF0"/>
<path d="M19.2734 0V3.58622C19.2734 4.08134 19.6749 4.48277 20.17 4.48277H23.7562L19.2734 0Z" fill="#98A2B3"/>
<rect x="1.5957" y="8" width="18.5193" height="10.5193" rx="1.37533" fill="#D92D20"/>
<path d="M4.79097 15.2598V11.0598H6.60897C6.98497 11.0598 7.30897 11.1218 7.58097 11.2458C7.85297 11.3658 8.06297 11.5398 8.21097 11.7678C8.35897 11.9958 8.43297 12.2678 8.43297 12.5838C8.43297 12.8958 8.35897 13.1658 8.21097 13.3938C8.06297 13.6218 7.85297 13.7978 7.58097 13.9218C7.30897 14.0418 6.98497 14.1018 6.60897 14.1018H5.33097L5.76297 13.6638V15.2598H4.79097ZM5.76297 13.7718L5.33097 13.3098H6.55497C6.85497 13.3098 7.07897 13.2458 7.22697 13.1178C7.37497 12.9898 7.44897 12.8118 7.44897 12.5838C7.44897 12.3518 7.37497 12.1718 7.22697 12.0438C7.07897 11.9158 6.85497 11.8518 6.55497 11.8518H5.33097L5.76297 11.3898V13.7718ZM9.12691 15.2598V11.0598H11.0349C11.4909 11.0598 11.8929 11.1478 12.2409 11.3238C12.5889 11.4958 12.8609 11.7378 13.0569 12.0498C13.2529 12.3618 13.3509 12.7318 13.3509 13.1598C13.3509 13.5838 13.2529 13.9538 13.0569 14.2698C12.8609 14.5818 12.5889 14.8258 12.2409 15.0018C11.8929 15.1738 11.4909 15.2598 11.0349 15.2598H9.12691ZM10.0989 14.4618H10.9869C11.2669 14.4618 11.5089 14.4098 11.7129 14.3058C11.9209 14.1978 12.0809 14.0458 12.1929 13.8498C12.3089 13.6538 12.3669 13.4238 12.3669 13.1598C12.3669 12.8918 12.3089 12.6618 12.1929 12.4698C12.0809 12.2738 11.9209 12.1238 11.7129 12.0198C11.5089 11.9118 11.2669 11.8578 10.9869 11.8578H10.0989V14.4618ZM14.9839 12.9498H16.9999V13.7298H14.9839V12.9498ZM15.0559 15.2598H14.0839V11.0598H17.2579V11.8398H15.0559V15.2598Z" fill="white"/>
</g>
<defs>
<clipPath id="clip0_2401_14153">
<rect width="26" height="26" fill="white"/>
</clipPath>
</defs>
</svg>
