<svg width="60" height="60" viewBox="0 0 60 60" fill="none" xmlns="http://www.w3.org/2000/svg">
<path fill-rule="evenodd" clip-rule="evenodd" d="M42.8038 4.67377C39.3926 1.2624 33.6941 1.91257 31.1388 6.00472L24.0259 17.3961C24.0259 17.3961 24.0221 17.4024 24.0088 17.4119C23.9925 17.4236 23.9577 17.4437 23.8993 17.4602C23.7718 17.4961 23.6052 17.4933 23.4563 17.4382C21.0286 16.5382 16.8614 15.5495 12.534 17.1795C10.2026 18.0576 9.03921 20.0787 8.91244 22.1293C8.79149 24.0857 9.58164 26.0969 11.0349 27.5502L19.8737 36.3889L3.17364 53.0889C2.19733 54.0654 2.19733 55.6482 3.17364 56.6247C4.14994 57.6009 5.73286 57.6009 6.70916 56.6247L23.4092 39.9244L32.2481 48.7634C33.7013 50.2167 35.7126 51.0069 37.6691 50.8859C39.7196 50.7592 41.7408 49.5957 42.6188 47.2644C44.2488 42.9369 43.2601 38.7697 42.3603 36.3419C42.3051 36.1932 42.3023 36.0267 42.3381 35.8989C42.3546 35.8407 42.3748 35.8059 42.3866 35.7894C42.3961 35.7762 42.4021 35.7727 42.4021 35.7727L53.7936 28.6594C57.8858 26.1042 58.5361 20.4059 55.1246 16.9945L42.8038 4.67377ZM35.3801 8.65297C36.2318 7.28892 38.1313 7.07219 39.2683 8.20932L51.5891 20.53C52.7261 21.6672 52.5096 23.5666 51.1453 24.4183L39.7541 31.5314C37.3923 33.0062 36.8666 35.9074 37.6721 38.0799C38.3866 40.0074 38.9566 42.8024 37.9398 45.5019C37.8703 45.6862 37.7931 45.7527 37.7456 45.7854C37.6851 45.8272 37.5658 45.8827 37.3606 45.8954C36.9168 45.9229 36.2831 45.7272 35.7836 45.2279L14.5705 24.0147C14.0711 23.5153 13.8755 22.8815 13.9029 22.4378C13.9156 22.2324 13.9712 22.1133 14.013 22.0527C14.0457 22.0053 14.1122 21.9279 14.2965 21.8585C16.996 20.8417 19.7908 21.4118 21.7184 22.1264C23.891 22.9318 26.7921 22.4061 28.2671 20.0443L35.3801 8.65297Z" fill="currentColor"/>
</svg>
