<svg width="20" height="20" viewBox="0 0 20 20" fill="none" xmlns="http://www.w3.org/2000/svg">
<mask id="path-1-inside-1_1294_823" fill="white">
<path d="M3.93697 2.04766C2.26871 3.31958 1.0427 5.08393 0.432455 7.09103C-0.177794 9.09813 -0.141377 11.2463 0.536551 13.2316C1.21448 15.2168 2.49958 16.9386 4.20999 18.1533C5.9204 19.3679 7.96949 20.0139 10.0673 19.9998C12.165 19.9857 14.2053 19.3122 15.8992 18.0746C17.5931 16.8371 18.8549 15.0982 19.5061 13.104C20.1572 11.1098 20.1647 8.96129 19.5275 6.96259C18.8904 4.96388 17.6407 3.21618 15.9555 1.96682L14.6691 3.70206C15.9903 4.68154 16.97 6.05172 17.4695 7.61869C17.9691 9.18566 17.9632 10.8701 17.4527 12.4335C16.9422 13.9969 15.9529 15.3602 14.6249 16.3304C13.2969 17.3007 11.6974 17.8287 10.0527 17.8397C8.4081 17.8508 6.80163 17.3444 5.46069 16.3921C4.11974 15.4398 3.11223 14.09 2.58074 12.5335C2.04925 10.9771 2.0207 9.29294 2.49913 7.7194C2.97756 6.14585 3.93874 4.76261 5.24664 3.76544L3.93697 2.04766Z"/>
</mask>
<path d="M3.93697 2.04766C2.26871 3.31958 1.0427 5.08393 0.432455 7.09103C-0.177794 9.09813 -0.141377 11.2463 0.536551 13.2316C1.21448 15.2168 2.49958 16.9386 4.20999 18.1533C5.9204 19.3679 7.96949 20.0139 10.0673 19.9998C12.165 19.9857 14.2053 19.3122 15.8992 18.0746C17.5931 16.8371 18.8549 15.0982 19.5061 13.104C20.1572 11.1098 20.1647 8.96129 19.5275 6.96259C18.8904 4.96388 17.6407 3.21618 15.9555 1.96682L14.6691 3.70206C15.9903 4.68154 16.97 6.05172 17.4695 7.61869C17.9691 9.18566 17.9632 10.8701 17.4527 12.4335C16.9422 13.9969 15.9529 15.3602 14.6249 16.3304C13.2969 17.3007 11.6974 17.8287 10.0527 17.8397C8.4081 17.8508 6.80163 17.3444 5.46069 16.3921C4.11974 15.4398 3.11223 14.09 2.58074 12.5335C2.04925 10.9771 2.0207 9.29294 2.49913 7.7194C2.97756 6.14585 3.93874 4.76261 5.24664 3.76544L3.93697 2.04766Z" stroke="black" stroke-width="3" stroke-linejoin="round" mask="url(#path-1-inside-1_1294_823)"/>
<path d="M10 3V13" stroke="black" stroke-width="1.7" stroke-linecap="round"/>
</svg>
