<svg width="16" height="16" viewBox="0 0 16 16" fill="none" xmlns="http://www.w3.org/2000/svg">
<path d="M10.0002 15.1668H6.00016C2.38016 15.1668 0.833496 13.6202 0.833496 10.0002V6.00016C0.833496 2.38016 2.38016 0.833496 6.00016 0.833496H10.0002C13.6202 0.833496 15.1668 2.38016 15.1668 6.00016V10.0002C15.1668 13.6202 13.6202 15.1668 10.0002 15.1668ZM6.00016 1.8335C2.92683 1.8335 1.8335 2.92683 1.8335 6.00016V10.0002C1.8335 13.0735 2.92683 14.1668 6.00016 14.1668H10.0002C13.0735 14.1668 14.1668 13.0735 14.1668 10.0002V6.00016C14.1668 2.92683 13.0735 1.8335 10.0002 1.8335H6.00016Z" fill="currentColor"/>
<path d="M11.3334 8.39351H9.54675C8.82008 8.39351 8.25342 7.82685 8.25342 7.10018V6.10681C8.25342 5.38014 8.82008 4.81348 9.54675 4.81348H10.5401C11.2534 4.81348 11.8334 5.39348 11.8334 6.10681V7.88684C11.8334 8.16684 11.6068 8.39351 11.3334 8.39351ZM9.54675 5.81348C9.33342 5.81348 9.25342 5.97348 9.25342 6.10681V7.10018C9.25342 7.23351 9.32675 7.39351 9.54675 7.39351H10.8334V6.11348C10.8334 5.95348 10.7001 5.82015 10.5401 5.82015H9.54675V5.81348Z" fill="currentColor"/>
<path d="M9.93997 11.1869C9.76664 11.1869 9.59997 11.1002 9.50664 10.9402C9.36664 10.7002 9.44664 10.3935 9.67997 10.2535C10.5866 9.71354 10.8333 9.57355 10.8333 7.89355C10.8333 7.62022 11.06 7.39355 11.3333 7.39355C11.6066 7.39355 11.8333 7.62022 11.8333 7.89355C11.8333 9.94689 11.3866 10.4069 10.1933 11.1135C10.1133 11.1602 10.0266 11.1869 9.93997 11.1869Z" fill="currentColor"/>
<path d="M7.24016 8.39351H5.45349C4.72682 8.39351 4.16016 7.82685 4.16016 7.10018V6.10681C4.16016 5.38014 4.72682 4.81348 5.45349 4.81348H6.44682C7.16015 4.81348 7.74016 5.39348 7.74016 6.10681V7.88684C7.74016 8.16684 7.52016 8.39351 7.24016 8.39351ZM5.46015 5.81348C5.24682 5.81348 5.16682 5.97348 5.16682 6.10681V7.10018C5.16682 7.23351 5.24015 7.39351 5.46015 7.39351H6.74682V6.11348C6.74682 5.95348 6.61349 5.82015 6.45349 5.82015H5.46015V5.81348Z" fill="currentColor"/>
<path d="M5.84671 11.1869C5.67338 11.1869 5.50671 11.1002 5.41338 10.9402C5.27338 10.7002 5.35338 10.3935 5.58671 10.2535C6.49338 9.71354 6.74004 9.57355 6.74004 7.89355C6.74004 7.62022 6.96671 7.39355 7.24004 7.39355C7.51338 7.39355 7.74004 7.62022 7.74004 7.89355C7.74004 9.94689 7.29338 10.4069 6.10004 11.1135C6.02004 11.1602 5.93338 11.1869 5.84671 11.1869Z" fill="currentColor"/>
</svg>
