<svg width="60" height="60" viewBox="0 0 60 60" fill="none" xmlns="http://www.w3.org/2000/svg">
<path d="M13.741 11.8982C22.5993 3.88529 35.8561 3.76277 44.8369 11.0773L37.7184 11.3468C36.7995 11.3836 36.0889 12.1432 36.1256 13.0621C36.1624 13.9565 36.8975 14.6549 37.7797 14.6549C37.8042 14.6549 37.8164 14.6549 37.8409 14.6549L48.7698 14.2506C49.6642 14.2138 50.3626 13.491 50.3626 12.5965V12.474C50.3626 12.4495 50.3626 12.4373 50.3626 12.4128V12.4005L49.9583 1.59414C49.9215 0.675231 49.1496 -0.0353925 48.243 0.00136389C47.3241 0.0381203 46.6135 0.797752 46.6502 1.71666L46.9075 8.49208C42.46 4.8532 36.9833 2.74584 31.1268 2.45179C23.8735 2.08422 16.9021 4.57141 11.5234 9.44775C4.12309 16.1497 0.986546 26.3434 3.33895 36.0471C3.52274 36.8067 4.1966 37.3091 4.94398 37.3091C5.07876 37.3091 5.20128 37.2968 5.33605 37.2601C6.2182 37.0395 6.76955 36.1451 6.54901 35.263C4.49065 26.7355 7.23513 17.7792 13.741 11.8982Z" fill="currentColor"/>
<path d="M56.659 23.953C56.4385 23.0708 55.5441 22.5195 54.6619 22.74C53.7798 22.9606 53.2284 23.855 53.449 24.7371C55.5196 33.2646 52.7629 42.2209 46.257 48.1019C41.6869 52.2309 35.953 54.2648 30.2435 54.2648C24.7913 54.2648 19.3513 52.4147 14.9651 48.7635L22.1693 48.1142C23.076 48.0284 23.7498 47.232 23.6641 46.3131C23.5783 45.3942 22.7819 44.7326 21.863 44.8184L10.9709 45.7985C10.0642 45.8843 9.39035 46.6807 9.47611 47.5996L10.4563 58.4917C10.5298 59.3494 11.2527 59.9987 12.0981 59.9987C12.1471 59.9987 12.1961 59.9987 12.2451 59.9865C13.1517 59.9007 13.8256 59.1043 13.7398 58.1854L13.1517 51.557C17.5993 55.1592 23.0515 57.2543 28.8712 57.5483C29.3368 57.5728 29.8024 57.5851 30.2557 57.5851C37.0066 57.5851 43.4267 55.1102 48.4746 50.5524C55.8749 43.8504 59.0114 33.6689 56.659 23.953Z" fill="currentColor"/>
</svg>
