<svg width="12" height="13" viewBox="0 0 12 13" fill="none" xmlns="http://www.w3.org/2000/svg">
<path d="M8.57633 8.04717H8.03431L7.8422 7.86192C8.51458 7.07976 8.91938 6.06432 8.91938 4.95969C8.91938 2.49657 6.92281 0.5 4.45969 0.5C1.99657 0.5 0 2.49657 0 4.95969C0 7.42281 1.99657 9.41938 4.45969 9.41938C5.56432 9.41938 6.57976 9.01458 7.36192 8.3422L7.54717 8.53431V9.07633L10.9777 12.5L12 11.4777L8.57633 8.04717ZM4.45969 8.04717C2.75129 8.04717 1.37221 6.6681 1.37221 4.95969C1.37221 3.25129 2.75129 1.87221 4.45969 1.87221C6.1681 1.87221 7.54717 3.25129 7.54717 4.95969C7.54717 6.6681 6.1681 8.04717 4.45969 8.04717Z" fill="#B2B2B2"/>
</svg>
