<svg width="30" height="30" viewBox="0 0 30 30" fill="none" xmlns="http://www.w3.org/2000/svg">
<path d="M3.08698 3.20898H5.19801C6.50831 3.20898 7.53955 4.33729 7.43036 5.63545L6.42337 17.7193C6.25352 19.6968 7.81858 21.3954 9.80829 21.3954H22.7293C24.4763 21.3954 26.005 19.9638 26.1384 18.2288L26.7936 9.12958C26.9392 7.11561 25.4105 5.47773 23.3844 5.47773H7.72154" stroke="#292D32" stroke-width="1.21324" stroke-miterlimit="10" stroke-linecap="round" stroke-linejoin="round"/>
<path d="M20.3756 27.4745C21.2132 27.4745 21.8922 26.7955 21.8922 25.958C21.8922 25.1204 21.2132 24.4414 20.3756 24.4414C19.538 24.4414 18.8591 25.1204 18.8591 25.958C18.8591 26.7955 19.538 27.4745 20.3756 27.4745Z" stroke="#292D32" stroke-width="1.21324" stroke-miterlimit="10" stroke-linecap="round" stroke-linejoin="round"/>
<path d="M10.6697 27.4745C11.5073 27.4745 12.1863 26.7955 12.1863 25.958C12.1863 25.1204 11.5073 24.4414 10.6697 24.4414C9.83218 24.4414 9.1532 25.1204 9.1532 25.958C9.1532 26.7955 9.83218 27.4745 10.6697 27.4745Z" stroke="#292D32" stroke-width="1.21324" stroke-miterlimit="10" stroke-linecap="round" stroke-linejoin="round"/>
<path d="M11.5797 10.4883H26.1385" stroke="#292D32" stroke-width="1.21324" stroke-miterlimit="10" stroke-linecap="round" stroke-linejoin="round"/>
</svg>
