<svg width="60" height="60" viewBox="0 0 60 60" fill="none" xmlns="http://www.w3.org/2000/svg">
<g clip-path="url(#clip0_1760_8716)">
<path d="M30 0C27.9199 0 26.25 1.66992 26.25 3.75V7.5C26.25 9.58008 27.9199 11.25 30 11.25C32.0801 11.25 33.75 9.58008 33.75 7.5V3.75C33.75 1.66992 32.0801 0 30 0ZM11.2793 7.51465C10.3125 7.51465 9.36035 7.89551 8.62793 8.62793C7.14844 10.0928 7.14844 12.4512 8.62793 13.9307L11.2793 16.582C12.7441 18.0469 15.1025 18.0469 16.582 16.582C18.0469 15.1025 18.0469 12.7441 16.582 11.2793L13.9307 8.62793C13.1982 7.89551 12.2314 7.51465 11.2793 7.51465ZM48.7207 7.51465C47.7686 7.51465 46.8018 7.89551 46.0693 8.62793L43.418 11.2793C41.9531 12.7441 41.9531 15.1025 43.418 16.582C44.8975 18.0469 47.2559 18.0469 48.7207 16.582L51.3721 13.9307C52.8516 12.4512 52.8516 10.0928 51.3721 8.62793C50.6396 7.89551 49.6875 7.51465 48.7207 7.51465ZM30 15C21.709 15 15 21.709 15 30C15 38.291 21.709 45 30 45C38.291 45 45 38.291 45 30C45 21.709 38.291 15 30 15ZM3.75 26.25C1.66992 26.25 0 27.9199 0 30C0 32.0801 1.66992 33.75 3.75 33.75H7.5C9.58008 33.75 11.25 32.0801 11.25 30C11.25 27.9199 9.58008 26.25 7.5 26.25H3.75ZM52.5 26.25C50.4199 26.25 48.75 27.9199 48.75 30C48.75 32.0801 50.4199 33.75 52.5 33.75H56.25C58.3301 33.75 60 32.0801 60 30C60 27.9199 58.3301 26.25 56.25 26.25H52.5ZM13.7402 42.3193C12.8467 42.3633 11.9678 42.7295 11.2793 43.418L8.62793 46.0693C7.14844 47.5488 7.14844 49.9072 8.62793 51.3721C10.0928 52.8516 12.4512 52.8516 13.9307 51.3721L16.582 48.7207C18.0469 47.2559 18.0469 44.8975 16.582 43.418C15.791 42.6416 14.7656 42.2754 13.7402 42.3193ZM45.8936 42.3193C45 42.3633 44.1064 42.7295 43.418 43.418C41.9531 44.8975 41.9531 47.2559 43.418 48.7207L46.0693 51.3721C47.5488 52.8516 49.9072 52.8516 51.3721 51.3721C52.8516 49.9072 52.8516 47.5488 51.3721 46.0693L48.7207 43.418C47.9443 42.6416 46.9043 42.2754 45.8936 42.3193ZM29.8096 48.75C27.8174 48.8525 26.25 50.4932 26.25 52.5V56.25C26.25 58.3301 27.9199 60 30 60C32.0801 60 33.75 58.3301 33.75 56.25V52.5C33.75 50.4199 32.0801 48.75 30 48.75C29.9414 48.75 29.8682 48.75 29.8096 48.75Z" fill="currentColor"/>
</g>
<defs>
<clipPath id="clip0_1760_8716">
<rect width="60" height="60" fill="white"/>
</clipPath>
</defs>
</svg>
