<svg width="15" height="15" viewBox="0 0 15 15" fill="none" xmlns="http://www.w3.org/2000/svg">
<path d="M11.8748 7.79232C11.8748 6.98732 12.5282 6.33398 13.3332 6.33398V5.75065C13.3332 3.41732 12.7498 2.83398 10.4165 2.83398H4.58317C2.24984 2.83398 1.6665 3.41732 1.6665 5.75065V6.04232C2.4715 6.04232 3.12484 6.69565 3.12484 7.50065C3.12484 8.30565 2.4715 8.95898 1.6665 8.95898V9.25065C1.6665 11.584 2.24984 12.1673 4.58317 12.1673H10.4165C12.7498 12.1673 13.3332 11.584 13.3332 9.25065C12.5282 9.25065 11.8748 8.59732 11.8748 7.79232Z" stroke="#12B76A" stroke-width="0.875" stroke-linecap="round" stroke-linejoin="round"/>
<path d="M5.75 9.10352L9.25 5.60352" stroke="#12B76A" stroke-width="0.875" stroke-linecap="round" stroke-linejoin="round"/>
<path d="M9.24696 9.10417H9.2522" stroke="#12B76A" stroke-width="1.16667" stroke-linecap="round" stroke-linejoin="round"/>
<path d="M5.74696 5.89518H5.7522" stroke="#12B76A" stroke-width="1.16667" stroke-linecap="round" stroke-linejoin="round"/>
</svg>
