<svg width="26" height="26" viewBox="0 0 26 26" fill="none" xmlns="http://www.w3.org/2000/svg">
<g clip-path="url(#clip0_2401_14678)">
<path d="M4.78906 0.673887C4.78906 0.178719 5.19748 -0.222656 5.70138 -0.222656H19.3856L23.947 4.26011V24.8808C23.947 25.376 23.5385 25.7773 23.0347 25.7773H5.70138C5.19753 25.7773 4.78911 25.376 4.78911 24.8808L4.78906 0.673887Z" fill="#EAECF0"/>
<path d="M19.2734 0V3.58622C19.2734 4.08134 19.6749 4.48277 20.17 4.48277H23.7562L19.2734 0Z" fill="#98A2B3"/>
<rect x="1.5957" y="8" width="16.5193" height="10.5193" rx="1.37533" fill="#101828"/>
<path d="M5.55452 15.2598V11.8518H4.21052V11.0598H7.87052V11.8518H6.52652V15.2598H5.55452ZM7.73187 15.2598L9.53787 12.7698V13.4778L7.80987 11.0598H8.91387L10.1079 12.7458L9.64587 12.7518L10.8219 11.0598H11.8779L10.1619 13.4358V12.7398L11.9799 15.2598H10.8579L9.62187 13.4778H10.0659L8.84787 15.2598H7.73187ZM13.1834 15.2598V11.8518H11.8394V11.0598H15.4994V11.8518H14.1554V15.2598H13.1834Z" fill="white"/>
</g>
<defs>
<clipPath id="clip0_2401_14678">
<rect width="26" height="26" fill="white"/>
</clipPath>
</defs>
</svg>
