<svg width="40" height="40" viewBox="0 0 33 33" fill="none" xmlns="http://www.w3.org/2000/svg">
<path opacity="0.4" d="M30.25 10.7387V22.2613C30.25 26.125 28.4763 28.7787 25.355 29.7825C24.4475 30.0987 23.4025 30.25 22.2613 30.25H10.7387C9.5975 30.25 8.5525 30.0987 7.645 29.7825C4.52375 28.7787 2.75 26.125 2.75 22.2613V10.7387C2.75 5.73375 5.73375 2.75 10.7387 2.75H22.2613C27.2663 2.75 30.25 5.73375 30.25 10.7387Z" fill="#0068FF"/>
<path d="M25.3545 29.7827C24.447 30.099 23.402 30.2503 22.2608 30.2503H10.7383C9.59703 30.2503 8.55203 30.099 7.64453 29.7827C8.12578 26.1527 11.9208 23.334 16.4995 23.334C21.0783 23.334 24.8733 26.1527 25.3545 29.7827Z" fill="#0068FF"/>
<path d="M21.4222 15.9225C21.4222 18.645 19.2222 20.8587 16.4997 20.8587C13.7772 20.8587 11.5771 18.645 11.5771 15.9225C11.5771 13.2 13.7772 11 16.4997 11C19.2222 11 21.4222 13.2 21.4222 15.9225Z" fill="#0068FF"/>
</svg>
