<svg width="15" height="15" viewBox="0 0 15 15" fill="none" xmlns="http://www.w3.org/2000/svg">
<path fill-rule="evenodd" clip-rule="evenodd" d="M4 3.5C4 1.567 5.567 0 7.5 0C9.43299 0 11 1.567 11 3.5C11 5.43299 9.43299 7 7.5 7C5.567 7 4 5.43299 4 3.5Z" fill="currentColor"/>
<path fill-rule="evenodd" clip-rule="evenodd" d="M2.56932 9.9025C3.78913 9.2213 5.41619 9 7.50061 9C9.58076 9 11.2053 9.2204 12.4241 9.8981C13.7322 10.6255 14.5351 11.8613 14.9632 13.6587C15.1222 14.3267 14.7461 15 14.2261 15H0.770417C0.252617 15 -0.121246 14.3297 0.03648 13.6654C0.463222 11.8681 1.26332 10.6318 2.56932 9.9025Z" fill="currentColor"/>
</svg>
