<svg width="26" height="26" viewBox="0 0 26 26" fill="none" xmlns="http://www.w3.org/2000/svg">
<g clip-path="url(#clip0_2401_14126)">
<path d="M4.78906 0.673887C4.78906 0.178719 5.19748 -0.222656 5.70138 -0.222656H19.3856L23.947 4.26011V24.8808C23.947 25.376 23.5385 25.7773 23.0347 25.7773H5.70138C5.19753 25.7773 4.78911 25.376 4.78911 24.8808L4.78906 0.673887Z" fill="#EAECF0"/>
<path d="M19.2734 0V3.58622C19.2734 4.08134 19.6749 4.48277 20.17 4.48277H23.7562L19.2734 0Z" fill="#98A2B3"/>
<rect x="1.5957" y="8" width="16.5193" height="10.5193" rx="1.37533" fill="#039855"/>
<path d="M4.08441 15.2598L5.89041 12.7698V13.4778L4.16241 11.0598H5.26641L6.46041 12.7458L5.99841 12.7518L7.17441 11.0598H8.23041L6.51441 13.4358V12.7398L8.33241 15.2598H7.21041L5.97441 13.4778H6.41841L5.20041 15.2598H4.08441ZM8.71284 15.2598V11.0598H9.68484V14.4678H11.7908V15.2598H8.71284ZM13.6964 15.3318C13.3604 15.3318 13.0384 15.2878 12.7304 15.1998C12.4224 15.1078 12.1744 14.9898 11.9864 14.8458L12.3164 14.1138C12.4964 14.2418 12.7084 14.3478 12.9524 14.4318C13.2004 14.5118 13.4504 14.5518 13.7024 14.5518C13.8944 14.5518 14.0484 14.5338 14.1644 14.4978C14.2844 14.4578 14.3724 14.4038 14.4284 14.3358C14.4844 14.2678 14.5124 14.1898 14.5124 14.1018C14.5124 13.9898 14.4684 13.9018 14.3804 13.8378C14.2924 13.7698 14.1764 13.7158 14.0324 13.6758C13.8884 13.6318 13.7284 13.5918 13.5524 13.5558C13.3804 13.5158 13.2064 13.4678 13.0304 13.4118C12.8584 13.3558 12.7004 13.2838 12.5564 13.1958C12.4124 13.1078 12.2944 12.9918 12.2024 12.8478C12.1144 12.7038 12.0704 12.5198 12.0704 12.2958C12.0704 12.0558 12.1344 11.8378 12.2624 11.6418C12.3944 11.4418 12.5904 11.2838 12.8504 11.1678C13.1144 11.0478 13.4444 10.9878 13.8404 10.9878C14.1044 10.9878 14.3644 11.0198 14.6204 11.0838C14.8764 11.1438 15.1024 11.2358 15.2984 11.3598L14.9984 12.0978C14.8024 11.9858 14.6064 11.9038 14.4104 11.8518C14.2144 11.7958 14.0224 11.7678 13.8344 11.7678C13.6464 11.7678 13.4924 11.7898 13.3724 11.8338C13.2524 11.8778 13.1664 11.9358 13.1144 12.0078C13.0624 12.0758 13.0364 12.1558 13.0364 12.2478C13.0364 12.3558 13.0804 12.4438 13.1684 12.5118C13.2564 12.5758 13.3724 12.6278 13.5164 12.6678C13.6604 12.7078 13.8184 12.7478 13.9904 12.7878C14.1664 12.8278 14.3404 12.8738 14.5124 12.9258C14.6884 12.9778 14.8484 13.0478 14.9924 13.1358C15.1364 13.2238 15.2524 13.3398 15.3404 13.4838C15.4324 13.6278 15.4784 13.8098 15.4784 14.0298C15.4784 14.2658 15.4124 14.4818 15.2804 14.6778C15.1484 14.8738 14.9504 15.0318 14.6864 15.1518C14.4264 15.2718 14.0964 15.3318 13.6964 15.3318Z" fill="white"/>
</g>
<defs>
<clipPath id="clip0_2401_14126">
<rect width="26" height="26" fill="white"/>
</clipPath>
</defs>
</svg>
