<svg width="26" height="26" viewBox="0 0 26 26" fill="none" xmlns="http://www.w3.org/2000/svg">
<g clip-path="url(#clip0_2401_14431)">
<path d="M4.78906 0.673887C4.78906 0.178719 5.19748 -0.222656 5.70138 -0.222656H19.3856L23.947 4.26011V24.8808C23.947 25.376 23.5385 25.7773 23.0347 25.7773H5.70138C5.19753 25.7773 4.78911 25.376 4.78911 24.8808L4.78906 0.673887Z" fill="#EAECF0"/>
<path d="M19.2734 0V3.58622C19.2734 4.08134 19.6749 4.48277 20.17 4.48277H23.7562L19.2734 0Z" fill="#98A2B3"/>
<rect x="1.5957" y="8" width="15.5193" height="10.5193" rx="1.37533" fill="#F79009"/>
<path d="M4.38913 15.2598V14.6298L6.98713 11.4978L7.10713 11.8518H4.43713V11.0598H7.97113V11.6898L5.37913 14.8218L5.25913 14.4678H8.06113V15.2598H4.38913ZM8.68452 15.2598V11.0598H9.65652V15.2598H8.68452ZM10.6533 15.2598V11.0598H12.4713C12.8473 11.0598 13.1713 11.1218 13.4433 11.2458C13.7153 11.3658 13.9253 11.5398 14.0733 11.7678C14.2213 11.9958 14.2953 12.2678 14.2953 12.5838C14.2953 12.8958 14.2213 13.1658 14.0733 13.3938C13.9253 13.6218 13.7153 13.7978 13.4433 13.9218C13.1713 14.0418 12.8473 14.1018 12.4713 14.1018H11.1933L11.6253 13.6638V15.2598H10.6533ZM11.6253 13.7718L11.1933 13.3098H12.4173C12.7173 13.3098 12.9413 13.2458 13.0893 13.1178C13.2373 12.9898 13.3113 12.8118 13.3113 12.5838C13.3113 12.3518 13.2373 12.1718 13.0893 12.0438C12.9413 11.9158 12.7173 11.8518 12.4173 11.8518H11.1933L11.6253 11.3898V13.7718Z" fill="white"/>
</g>
<defs>
<clipPath id="clip0_2401_14431">
<rect width="26" height="26" fill="white"/>
</clipPath>
</defs>
</svg>
