<svg version="1.1" id="Layer_1" xmlns="http://www.w3.org/2000/svg" xmlns:xlink="http://www.w3.org/1999/xlink" viewBox="-51.2 -51.2 614.40 614.40" xml:space="preserve" fill="#000000" transform="rotate(0)matrix(-1, 0, 0, 1, 0, 0)"><g id="SVGRepo_bgCarrier" stroke-width="0"></g><g id="SVGRepo_tracerCarrier" stroke-linecap="round" stroke-linejoin="round"></g><g id="SVGRepo_iconCarrier"> <path style="fill:#FFFFFF;" d="M256,492C125.661,492,20,386.339,20,256S125.661,20,256,20s236,105.661,236,236 C491.855,386.279,386.279,491.855,256,492z"></path> <path style="fill:#d1d1d1;" d="M256,40c119.294,0,216,96.706,216,216s-96.706,216-216,216S40,375.294,40,256 C40.137,136.763,136.763,40.137,256,40 M256,0C114.615,0,0,114.615,0,256s114.615,256,256,256s256-114.615,256-256S397.385,0,256,0z "></path> <path style="fill:#fcfcfc;" d="M256,39.416c119.616,0,216.584,96.968,216.584,216.584S375.616,472.584,256,472.584 S39.416,375.616,39.416,256l0,0C39.535,136.433,136.433,39.535,256,39.416 M256,27.416C129.757,27.416,27.416,129.757,27.416,256 S129.757,484.584,256,484.584S484.584,382.243,484.584,256S382.243,27.416,256,27.416L256,27.416z"></path> <rect id="SVGCleanerId_0" x="249.997" y="58.776" width="12" height="36.904"></rect> <rect id="SVGCleanerId_1" x="249.997" y="416.323" width="12" height="36.904"></rect> <g> <rect id="SVGCleanerId_0_1_" x="249.997" y="58.776" width="12" height="36.904"></rect> </g> <g> <rect id="SVGCleanerId_1_1_" x="249.997" y="416.323" width="12" height="36.904"></rect> </g> <rect x="58.776" y="249.997" width="36.904" height="12"></rect> <rect x="416.323" y="249.997" width="36.904" height="12"></rect> <rect x="249.997" y="137.325" width="12" height="97.404"></rect> <rect x="241.889" y="209.764" transform="matrix(0.8985 -0.4389 0.4389 0.8985 -60.2646 170.8266)" width="194.944" height="12.001"></rect> <rect x="115.634" y="293.5" transform="matrix(0.561 -0.8278 0.8278 0.561 -148.7224 318.5618)" style="fill:#d1d1d1;" width="220.723" height="12.008"></rect> <circle style="fill:#1ba8e4;" cx="255.997" cy="255.997" r="27.237"></circle> </g></svg>