<svg version="1.1" id="Layer_1" xmlns="http://www.w3.org/2000/svg" xmlns:xlink="http://www.w3.org/1999/xlink" viewBox="0 0 491.54 491.54" xml:space="preserve" fill="#000000"><g id="SVGRepo_bgCarrier" stroke-width="0"></g><g id="SVGRepo_tracerCarrier" stroke-linecap="round" stroke-linejoin="round"></g><g id="SVGRepo_iconCarrier"> <rect x="61.917" y="475.238" style="fill:#D5D6DB;" width="367.698" height="16.302"></rect> <polygon style="fill:#EBF0F3;" points="349.504,0 61.928,0 61.928,475.219 429.624,475.219 429.624,80.119 "></polygon> <polygon style="fill:#D5D6DB;" points="349.504,80.119 429.624,80.119 349.504,0 "></polygon> <rect x="96.057" y="46.92" style="fill:#44C4A1;" width="78.735" height="8.934"></rect> <rect x="314.896" y="381.133" style="fill:#27A2DB;" width="78.74" height="8.934"></rect> <rect x="341.622" y="409.958" style="fill:#D5D6DB;" width="52.035" height="8.934"></rect> <rect x="180.598" y="128.768" style="fill:#E56353;" width="130.335" height="8.934"></rect> <g> <rect x="97.91" y="168.801" style="fill:#D5D6DB;" width="295.752" height="8.934"></rect> <rect x="97.91" y="201.728" style="fill:#D5D6DB;" width="295.752" height="8.934"></rect> <rect x="97.91" y="234.634" style="fill:#D5D6DB;" width="225.587" height="8.934"></rect> <rect x="97.91" y="267.571" style="fill:#D5D6DB;" width="295.752" height="8.934"></rect> <rect x="97.91" y="300.472" style="fill:#D5D6DB;" width="295.752" height="8.934"></rect> <rect x="97.91" y="333.414" style="fill:#D5D6DB;" width="169.318" height="8.934"></rect> <rect x="96.057" y="80.282" style="fill:#D5D6DB;" width="116.101" height="8.934"></rect> </g> </g></svg>