<svg width="244" height="251" viewBox="0 0 244 251" fill="none" xmlns="http://www.w3.org/2000/svg">
<g clip-path="url(#clip0_1096_8992)">
<path d="M170.844 251H104.237C103.462 250.999 102.72 250.691 102.173 250.144C101.625 249.596 101.317 248.854 101.316 248.079V201.511C101.317 200.737 101.625 199.994 102.173 199.447C102.72 198.899 103.462 198.591 104.237 198.59H170.844C171.618 198.591 172.361 198.899 172.908 199.447C173.455 199.994 173.763 200.737 173.764 201.511V248.079C173.763 248.854 173.455 249.596 172.908 250.143C172.361 250.691 171.618 250.999 170.844 251Z" fill="#F2F2F2"/>
<path d="M61.9942 129.607C62.4408 129.035 62.7566 128.373 62.9194 127.666C63.0823 126.959 63.0882 126.226 62.9367 125.516C62.7852 124.807 62.4801 124.14 62.0428 123.561C61.6054 122.982 61.0466 122.507 60.4055 122.167L59.9858 77.6169L51.6592 81.4381L53.4906 124.525C52.9921 125.64 52.9197 126.898 53.2873 128.063C53.6549 129.227 54.4369 130.217 55.4851 130.843C56.5333 131.469 57.7748 131.69 58.9745 131.462C60.1742 131.234 61.2486 130.574 61.9942 129.607Z" fill="#9E616A"/>
<path d="M61.7705 66.3373C61.7705 66.3373 53.6705 62.4082 52.5503 69.8212C51.4301 77.2342 46.8225 96.5274 46.8225 96.5274L60.8043 95.5385L61.7705 66.3373Z" fill="#9E616A"/>
<path d="M61.9942 129.607C62.4408 129.035 62.7566 128.373 62.9194 127.666C63.0823 126.959 63.0882 126.226 62.9367 125.516C62.7852 124.807 62.4801 124.14 62.0428 123.561C61.6054 122.982 61.0466 122.507 60.4055 122.167L59.9858 77.6169L51.6592 81.4381L53.4906 124.525C52.9921 125.64 52.9197 126.898 53.2873 128.063C53.6549 129.227 54.4369 130.217 55.4851 130.843C56.5333 131.469 57.7748 131.69 58.9745 131.462C60.1742 131.234 61.2486 130.574 61.9942 129.607Z" fill="#9E616A"/>
<path d="M61.7705 66.3373C61.7705 66.3373 53.6705 62.4082 52.5503 69.8212C51.4301 77.2342 46.8225 96.5274 46.8225 96.5274L60.8043 95.5385L61.7705 66.3373Z" fill="#53B1FD"/>
<path d="M38.3173 237.952C37.9903 237.967 37.6665 237.881 37.3899 237.706C37.1133 237.531 36.8972 237.275 36.7709 236.973C36.6446 236.671 36.6142 236.337 36.6838 236.017C36.7534 235.697 36.9197 235.407 37.1601 235.184C37.2004 235.024 37.2293 234.909 37.2695 234.749C37.2551 234.715 37.2406 234.68 37.226 234.645C36.8966 233.867 36.3445 233.203 35.6391 232.738C34.9338 232.272 34.1066 232.026 33.2615 232.029C32.4164 232.032 31.5911 232.285 30.8892 232.755C30.1873 233.226 29.6402 233.894 29.3165 234.674C28.0228 237.79 26.3758 240.911 25.9703 244.205C25.7916 245.662 25.867 247.138 26.1929 248.568C23.1545 241.94 21.5767 234.736 21.5666 227.445C21.5659 225.616 21.6676 223.787 21.8711 221.969C22.0392 220.478 22.2725 218.998 22.5709 217.529C24.1995 209.556 27.696 202.083 32.7734 195.724C35.2308 194.384 37.2182 192.322 38.4677 189.816C38.9203 188.916 39.2402 187.955 39.4175 186.963C39.1403 186.999 38.8585 187.022 38.5813 187.04C38.495 187.044 38.4041 187.049 38.3177 187.053L38.2851 187.055C37.9805 187.069 37.6783 186.994 37.4151 186.84C37.1519 186.686 36.9389 186.459 36.8016 186.187C36.6643 185.914 36.6086 185.608 36.6413 185.305C36.674 185.002 36.7937 184.714 36.9859 184.478C37.1056 184.33 37.2253 184.183 37.3452 184.036C37.527 183.809 37.7133 183.586 37.8951 183.359C37.916 183.337 37.9358 183.314 37.9541 183.29C38.1632 183.031 38.3722 182.777 38.5813 182.518C38.1997 181.926 37.6865 181.43 37.0816 181.068C34.9866 179.841 32.0962 180.691 30.5829 182.586C29.065 184.481 28.7788 187.14 29.3059 189.507C29.8243 191.522 30.6818 193.434 31.8418 195.161C31.7281 195.306 31.61 195.447 31.4964 195.593C29.4195 198.263 27.6094 201.131 26.0919 204.155C26.4609 200.767 26.0205 197.34 24.8068 194.157C23.5768 191.189 21.2712 188.69 19.2409 186.125C16.8022 183.043 11.8014 184.388 11.3717 188.294C11.3676 188.332 11.3635 188.37 11.3596 188.408C11.6611 188.578 11.9563 188.758 12.2451 188.949C12.608 189.192 12.8891 189.538 13.0518 189.943C13.2144 190.348 13.2509 190.793 13.1565 191.219C13.0621 191.645 12.8412 192.032 12.5228 192.331C12.2043 192.629 11.8032 192.824 11.3719 192.891L11.3278 192.898C11.4352 193.985 11.6251 195.062 11.8958 196.12C12.6803 199.074 14.0665 201.833 15.9676 204.226C17.8687 206.619 20.2437 208.594 22.9436 210.026C23.1208 210.117 23.2935 210.208 23.4708 210.294C21.9462 214.615 20.9899 219.115 20.6259 223.682C20.4198 226.377 20.432 229.084 20.6622 231.776L20.6486 231.681C20.0669 228.687 18.4697 225.985 16.1268 224.032C12.647 221.174 7.7307 220.121 3.97663 217.823C3.57766 217.567 3.11376 217.431 2.63964 217.429C2.16552 217.428 1.70095 217.563 1.30074 217.817C0.90053 218.071 0.581365 218.434 0.380882 218.864C0.1804 219.294 0.106968 219.772 0.169245 220.242C0.17428 220.275 0.179392 220.309 0.184592 220.342C0.744212 220.57 1.28909 220.833 1.81606 221.128C2.11763 221.298 2.41282 221.479 2.70165 221.67C3.0645 221.912 3.34566 222.259 3.50828 222.664C3.6709 223.069 3.7074 223.513 3.61301 223.939C3.51863 224.365 3.29774 224.753 2.9793 225.051C2.66086 225.35 2.25972 225.545 1.82844 225.611L1.78425 225.618C1.75243 225.623 1.72517 225.627 1.6934 225.632C2.64959 227.915 3.99163 230.016 5.66074 231.844C7.72266 234.057 10.2148 235.825 12.9842 237.04C15.7537 238.255 18.7422 238.892 21.7665 238.911H21.7711C22.5921 242.479 23.7816 245.951 25.3204 249.273H37.9996C38.0451 249.132 38.086 248.986 38.1269 248.845C36.9533 248.919 35.775 248.849 34.6185 248.636C35.5592 247.482 36.4999 246.319 37.4406 245.164C37.4616 245.143 37.4813 245.12 37.4997 245.096C37.9769 244.505 38.4586 243.919 38.9358 243.328L38.936 243.328C38.9615 241.517 38.7537 239.71 38.3177 237.952L38.3173 237.952Z" fill="#F2F2F2"/>
<path d="M225.246 237.952C224.919 237.967 224.595 237.881 224.319 237.706C224.042 237.531 223.826 237.275 223.7 236.973C223.574 236.671 223.543 236.337 223.613 236.017C223.682 235.697 223.849 235.407 224.089 235.184C224.129 235.024 224.158 234.909 224.198 234.749C224.184 234.715 224.17 234.68 224.155 234.645C223.826 233.867 223.273 233.203 222.568 232.738C221.863 232.272 221.036 232.026 220.19 232.029C219.345 232.032 218.52 232.285 217.818 232.755C217.116 233.226 216.569 233.894 216.245 234.674C214.952 237.79 213.305 240.911 212.899 244.205C212.721 245.662 212.796 247.138 213.122 248.568C210.083 241.94 208.506 234.736 208.496 227.445C208.495 225.616 208.597 223.787 208.8 221.969C208.968 220.478 209.201 218.998 209.5 217.529C211.128 209.556 214.625 202.083 219.702 195.724C222.16 194.384 224.147 192.322 225.397 189.816C225.849 188.916 226.169 187.955 226.346 186.963C226.069 186.999 225.787 187.022 225.51 187.04C225.424 187.044 225.333 187.049 225.247 187.053L225.214 187.055C224.909 187.069 224.607 186.994 224.344 186.84C224.081 186.686 223.868 186.459 223.731 186.187C223.593 185.914 223.538 185.608 223.57 185.305C223.603 185.002 223.723 184.714 223.915 184.478C224.035 184.33 224.154 184.183 224.274 184.036C224.456 183.809 224.642 183.586 224.824 183.359C224.845 183.337 224.865 183.314 224.883 183.29C225.092 183.031 225.301 182.777 225.51 182.518C225.129 181.926 224.615 181.43 224.011 181.068C221.916 179.841 219.025 180.691 217.512 182.586C215.994 184.481 215.708 187.14 216.235 189.507C216.753 191.522 217.611 193.434 218.771 195.161C218.657 195.306 218.539 195.447 218.425 195.593C216.348 198.263 214.538 201.131 213.021 204.155C213.39 200.767 212.949 197.34 211.736 194.157C210.506 191.189 208.2 188.69 206.17 186.125C203.731 183.043 198.73 184.388 198.301 188.294C198.297 188.332 198.292 188.37 198.288 188.408C198.59 188.578 198.885 188.758 199.174 188.949C199.537 189.192 199.818 189.538 199.981 189.943C200.143 190.348 200.18 190.793 200.085 191.219C199.991 191.645 199.77 192.032 199.452 192.331C199.133 192.629 198.732 192.824 198.301 192.891L198.257 192.898C198.364 193.985 198.554 195.062 198.825 196.12C199.609 199.074 200.995 201.833 202.897 204.226C204.798 206.619 207.173 208.594 209.873 210.026C210.05 210.117 210.222 210.208 210.4 210.294C208.875 214.615 207.919 219.115 207.555 223.682C207.349 226.377 207.361 229.084 207.591 231.776L207.578 231.681C206.996 228.687 205.399 225.985 203.056 224.032C199.576 221.174 194.66 220.121 190.906 217.823C190.507 217.567 190.043 217.431 189.569 217.429C189.094 217.428 188.63 217.563 188.23 217.817C187.83 218.071 187.51 218.434 187.31 218.864C187.109 219.294 187.036 219.772 187.098 220.242C187.103 220.275 187.108 220.309 187.114 220.342C187.673 220.57 188.218 220.833 188.745 221.128C189.047 221.298 189.342 221.479 189.631 221.67C189.993 221.912 190.275 222.259 190.437 222.664C190.6 223.069 190.636 223.513 190.542 223.939C190.448 224.365 190.227 224.753 189.908 225.051C189.59 225.35 189.189 225.545 188.757 225.611L188.713 225.618C188.681 225.623 188.654 225.627 188.622 225.632C189.579 227.915 190.921 230.016 192.59 231.844C194.652 234.057 197.144 235.825 199.913 237.04C202.683 238.255 205.671 238.892 208.696 238.911H208.7C209.521 242.479 210.711 245.951 212.249 249.273H224.929C224.974 249.132 225.015 248.986 225.056 248.845C223.882 248.919 222.704 248.849 221.547 248.636C222.488 247.482 223.429 246.319 224.37 245.164C224.391 245.143 224.41 245.12 224.429 245.096C224.906 244.505 225.388 243.919 225.865 243.328L225.865 243.328C225.89 241.517 225.683 239.71 225.247 237.952L225.246 237.952Z" fill="#F2F2F2"/>
<path d="M176.42 249.19C176.384 249.19 176.347 249.189 176.311 249.188C175.383 249.135 174.511 248.726 173.877 248.047C173.243 247.367 172.896 246.469 172.907 245.54C172.907 239.886 168.868 236.587 164.866 235.827C160.863 235.067 155.896 236.654 153.823 241.915L151.938 246.646C150.308 248.272 148.1 249.185 145.798 249.185C143.496 249.185 141.288 248.272 139.658 246.646L139.547 246.535L139.616 246.393L172.907 178.279V176.61C172.861 176.096 172.861 175.578 172.908 175.064L172.907 3.51171C172.907 3.04147 173.002 2.57602 173.185 2.14297C173.368 1.70991 173.637 1.31808 173.974 0.990708C174.312 0.66334 174.712 0.40711 175.15 0.237213C175.588 0.0673156 176.057 -0.0127907 176.527 0.00165804C177.454 0.0546901 178.326 0.463496 178.96 1.14299C179.594 1.82248 179.942 2.7203 179.931 3.64959V175.083C179.977 175.598 179.976 176.116 179.93 176.63L179.931 178.279L213.291 246.535L213.179 246.646C211.55 248.272 209.342 249.185 207.04 249.185C204.738 249.185 202.53 248.272 200.9 246.646L200.851 246.571L199.015 241.915C196.942 236.654 191.975 235.068 187.972 235.827C183.969 236.587 179.931 239.886 179.931 245.54V245.678C179.931 246.609 179.561 247.502 178.902 248.161C178.244 248.819 177.351 249.189 176.42 249.19Z" fill="#E6E6E6"/>
<path d="M237.359 124.171H115.478C114.062 124.169 112.703 123.606 111.702 122.604C110.7 121.602 110.136 120.244 110.135 118.827V33.6142C110.136 32.1974 110.7 30.8391 111.701 29.8373C112.703 28.8354 114.062 28.2719 115.478 28.2703H237.359C238.776 28.272 240.134 28.8355 241.136 29.8373C242.138 30.8392 242.701 32.1974 242.703 33.6142V118.827C242.701 120.244 242.138 121.602 241.136 122.604C240.134 123.606 238.776 124.169 237.359 124.171Z" fill="white"/>
<path d="M237.359 124.834H115.478C113.886 124.832 112.359 124.199 111.233 123.073C110.107 121.947 109.473 120.42 109.471 118.827V33.614C109.473 32.0215 110.107 30.4947 111.233 29.3687C112.359 28.2426 113.885 27.6092 115.478 27.6074H237.359C238.951 27.6092 240.478 28.2427 241.604 29.3687C242.73 30.4948 243.364 32.0215 243.365 33.614V118.827C243.364 120.42 242.73 121.947 241.604 123.073C240.478 124.199 238.951 124.832 237.359 124.834ZM115.478 28.9332C114.237 28.9345 113.047 29.4281 112.17 30.3056C111.292 31.1832 110.798 32.373 110.797 33.614V118.827C110.798 120.068 111.292 121.258 112.17 122.136C113.047 123.013 114.237 123.507 115.478 123.508H237.359C238.6 123.507 239.79 123.013 240.667 122.136C241.545 121.258 242.038 120.068 242.04 118.827V33.614C242.038 32.373 241.545 31.1832 240.667 30.3057C239.79 29.4281 238.6 28.9345 237.359 28.9332H115.478Z" fill="#F2F2F2"/>
<path d="M194.439 33.5983H158.398C156.113 33.5957 153.922 32.6869 152.306 31.0711C150.691 29.4554 149.782 27.2647 149.779 24.9798V24.8231H203.057V24.9798C203.055 27.2647 202.146 29.4554 200.53 31.0711C198.915 32.6869 196.724 33.5957 194.439 33.5983Z" fill="#E6E6E6"/>
<path d="M194.596 129.499H158.555C156.27 129.497 154.079 128.588 152.464 126.972C150.848 125.356 149.939 123.166 149.937 120.881V120.724H203.215V120.881C203.212 123.166 202.303 125.356 200.688 126.972C199.072 128.588 196.881 129.497 194.596 129.499Z" fill="#E6E6E6"/>
<path d="M242.906 249.628C242.906 249.697 242.893 249.766 242.866 249.83C242.84 249.893 242.801 249.952 242.752 250C242.704 250.049 242.646 250.088 242.582 250.114C242.518 250.141 242.449 250.154 242.38 250.154H0.525877C0.386406 250.154 0.252659 250.099 0.154038 250C0.0554174 249.901 0 249.768 0 249.628C0 249.489 0.0554174 249.355 0.154038 249.256C0.252659 249.158 0.386406 249.102 0.525877 249.102H242.38C242.449 249.102 242.518 249.115 242.582 249.142C242.646 249.168 242.704 249.207 242.752 249.256C242.801 249.305 242.84 249.363 242.866 249.427C242.893 249.49 242.906 249.559 242.906 249.628Z" fill="#CCCCCC"/>
<path d="M81.4469 237.387H87.8175L90.8481 212.814L81.4456 212.814L81.4469 237.387Z" fill="#9E616A"/>
<path d="M79.2899 234.244L89.3606 233.643V237.958L98.9352 244.57C99.4081 244.897 99.7643 245.366 99.9517 245.909C100.139 246.453 100.148 247.042 99.9769 247.59C99.8059 248.139 99.4639 248.619 99.001 248.959C98.5381 249.3 97.9784 249.483 97.4037 249.483H85.4141L83.3475 245.215L82.5406 249.483H78.02L79.2899 234.244Z" fill="#2F2E41"/>
<path d="M59.7807 100.709L59.1567 103.683L58.626 114.653L79.9456 111.767L81.5829 99.0635L79.3199 95.3452L59.7807 100.709Z" fill="#9E616A"/>
<path d="M49.2054 237.387H55.576L58.6067 212.814L49.2041 212.814L49.2054 237.387Z" fill="#9E616A"/>
<path d="M45.7492 193.974L45.749 193.908L48.1337 182.775L49.6042 177.233L45.5168 144.784C44.5544 121.209 58.2316 109.876 58.3393 109.764L58.6358 109.456L80.5705 108.919C92.3724 115.99 91.0363 154.666 93.1975 180.968C93.3516 182.844 95.2883 185.612 94.8122 187.396C91.0357 201.549 92.1419 216.855 89.2649 217.307L80.4438 217.184L75.8879 196.508L80.0933 180.738C78.2282 180.394 76.9392 171.276 76.9392 171.276C76.1265 170.311 73.3208 162.103 73.3208 162.103L69.5798 139.385L63.5694 178.46L65.0169 187.628L63.819 190.78L58.6891 216.802L58.6346 217.221L48.9632 216.256L45.7492 193.974Z" fill="#2F2E41"/>
<path d="M47.0484 234.244L57.1192 233.643V237.958L66.6937 244.57C67.1667 244.897 67.5228 245.366 67.7102 245.909C67.8977 246.453 67.9065 247.042 67.7355 247.59C67.5644 248.139 67.2225 248.619 66.7596 248.959C66.2966 249.3 65.737 249.483 65.1623 249.483H53.1726L51.106 245.215L50.2991 249.483H45.7786L47.0484 234.244Z" fill="#2F2E41"/>
<path d="M77.3695 57.8052L82.7466 63.7799L89.2052 75.9534L86.0327 90.9644L87.4198 98.0083L89.4681 105.752C81.5757 110.117 72.2008 104.088 63.5881 101.41L55.114 105.154L55.5621 94.8479L55.7919 68.8809C55.8007 67.8836 56.0145 66.8987 56.4198 65.9874C56.8252 65.0761 57.4135 64.2579 58.1483 63.5835C58.8831 62.909 59.7486 62.3928 60.6912 62.0669C61.6339 61.741 62.6334 61.6122 63.6278 61.6887L69.3037 57.5065L77.3695 57.8052Z" fill="#53B1FD"/>
<path d="M75.8632 54.6772C82.1251 54.6772 87.2014 49.6009 87.2014 43.3389C87.2014 37.077 82.1251 32.0007 75.8632 32.0007C69.6012 32.0007 64.5249 37.077 64.5249 43.3389C64.5249 49.6009 69.6012 54.6772 75.8632 54.6772Z" fill="#9E616A"/>
<path d="M89.205 39.2469C89.0052 40.3579 84.2321 40.894 84.3757 38.9175C83.4471 40.7784 82.0593 43.4789 83.827 46.5723C83.1346 47.3264 82.6985 48.2802 82.5809 49.2972C82.4633 50.3142 82.6703 51.3423 83.1723 52.2346C83.6753 53.0522 84.0966 53.9173 84.4304 54.8174C84.4977 55.0359 84.5458 55.2598 84.5741 55.4867C84.6025 55.7147 84.5691 55.9462 84.4774 56.1568C84.3856 56.3675 84.2388 56.5495 84.0524 56.6839C83.8661 56.8183 83.647 56.9001 83.4181 56.9207C83.1893 56.9413 82.9591 56.8999 82.7518 56.8009C77.9436 54.4459 69.5587 54.8451 64.2985 56.2819C64.3336 55.2586 64.3195 54.2376 64.2564 53.219C64.0644 54.4928 63.5506 55.6966 62.7635 56.7165C61.8629 56.9828 60.9798 57.2597 60.1247 57.533C59.9943 57.5753 59.8548 57.5814 59.7212 57.5507C59.5877 57.52 59.4649 57.4536 59.366 57.3587C59.2671 57.2638 59.1958 57.1438 59.1597 57.0116C59.1236 56.8794 59.124 56.7398 59.1609 56.6078C59.3276 56.0029 59.3587 55.3687 59.252 54.7505C59.0347 53.4678 58.3899 52.3078 57.9343 51.0918C57.4788 49.8757 57.2194 48.4774 57.7766 47.3034C58.6422 45.4811 61.0814 44.9238 62.1573 43.2171C63.3663 41.3002 62.4271 38.8015 62.6163 36.5411C62.8827 33.345 65.5005 30.7482 68.4514 29.4936C73.5609 27.3208 79.9531 29.0804 83.7835 33.0965C84.3208 32.7337 84.9481 32.527 85.5958 32.4991C86.2435 32.4713 86.8863 32.6235 87.4527 32.9388C88.5847 33.5451 89.3977 33.8605 89.9059 35.0415C90.351 36.0789 89.4082 38.1325 89.205 39.2469Z" fill="#2F2E41"/>
<path d="M84.3351 172.581L57.6592 145.905C57.3495 145.595 57.1755 145.174 57.1755 144.736C57.1755 144.297 57.3495 143.877 57.6592 143.566L76.3096 124.916C76.6201 124.606 77.0407 124.432 77.4792 124.432C77.9178 124.432 78.3384 124.606 78.6488 124.916L105.325 151.592C105.634 151.902 105.808 152.323 105.808 152.761C105.808 153.2 105.634 153.62 105.325 153.931L86.6742 172.581C86.3638 172.891 85.9432 173.065 85.5046 173.065C85.0661 173.065 84.6455 172.891 84.3351 172.581Z" fill="white"/>
<path d="M85.5048 173.506C85.2295 173.507 84.9568 173.454 84.7024 173.348C84.448 173.243 84.217 173.089 84.0228 172.893L57.3469 146.218C56.9542 145.825 56.7336 145.292 56.7336 144.736C56.7336 144.18 56.9542 143.647 57.3469 143.254L75.9974 124.603C76.3907 124.211 76.9237 123.99 77.4795 123.99C78.0352 123.99 78.5683 124.211 78.9615 124.603L105.637 151.279C106.03 151.672 106.25 152.205 106.25 152.761C106.25 153.317 106.03 153.85 105.637 154.243L86.9867 172.893C86.7925 173.089 86.5615 173.243 86.3071 173.348C86.0527 173.454 85.78 173.507 85.5048 173.506ZM77.4793 124.874C77.3202 124.873 77.1625 124.904 77.0154 124.965C76.8683 125.026 76.7347 125.115 76.6225 125.228L57.9717 143.879C57.7449 144.106 57.6174 144.414 57.6174 144.736C57.6174 145.057 57.7449 145.365 57.9717 145.593L84.6477 172.269C84.8789 172.488 85.1857 172.611 85.5047 172.611C85.8238 172.611 86.1306 172.488 86.3618 172.269L105.012 153.618C105.239 153.391 105.367 153.082 105.367 152.761C105.367 152.44 105.239 152.131 105.012 151.904L78.3364 125.228C78.2241 125.115 78.0905 125.026 77.9434 124.965C77.7963 124.904 77.6385 124.873 77.4793 124.874Z" fill="#E6E6E6"/>
<path d="M74.2843 127.397C73.8378 126.826 73.5219 126.163 73.3591 125.457C73.1962 124.75 73.1904 124.016 73.3418 123.307C73.4933 122.597 73.7984 121.93 74.2357 121.351C74.6731 120.773 75.2319 120.297 75.873 119.958L76.2927 75.4073L84.6193 79.2285L82.7879 122.315C83.2864 123.43 83.3588 124.689 82.9912 125.853C82.6236 127.018 81.8416 128.007 80.7934 128.633C79.7453 129.26 78.5037 129.48 77.304 129.252C76.1043 129.024 75.0299 128.364 74.2843 127.397Z" fill="#9E616A"/>
<path d="M74.5083 64.1277C74.5083 64.1277 82.6082 60.1986 83.7284 67.6116C84.8486 75.0246 89.4563 94.3179 89.4563 94.3179L75.4745 93.329L74.5083 64.1277Z" fill="#9E616A"/>
<path d="M74.2843 127.397C73.8378 126.826 73.5219 126.163 73.3591 125.457C73.1962 124.75 73.1904 124.016 73.3418 123.307C73.4933 122.597 73.7984 121.93 74.2357 121.351C74.6731 120.773 75.2319 120.297 75.873 119.958L76.2927 75.4073L84.6193 79.2285L82.7879 122.315C83.2864 123.43 83.3588 124.689 82.9912 125.853C82.6236 127.018 81.8416 128.007 80.7934 128.633C79.7453 129.26 78.5037 129.48 77.304 129.252C76.1043 129.024 75.0299 128.364 74.2843 127.397Z" fill="#9E616A"/>
<path d="M74.5083 64.1277C74.5083 64.1277 82.6082 60.1986 83.7284 67.6116C84.8486 75.0246 89.4563 94.3179 89.4563 94.3179L75.4745 93.329L74.5083 64.1277Z" fill="#53B1FD"/>
</g>
<defs>
<clipPath id="clip0_1096_8992">
<rect width="243.366" height="251" fill="white"/>
</clipPath>
</defs>
</svg>
