<svg width="819" height="687" viewBox="0 0 819 687" fill="none" xmlns="http://www.w3.org/2000/svg">
<g clip-path="url(#clip0_3472_29506)">
<path d="M665.691 93.874H121.914C112.311 93.874 104.525 101.659 104.525 111.263V668.107C104.525 677.71 112.311 685.495 121.914 685.495H665.691C675.295 685.495 683.08 677.71 683.08 668.107V111.263C683.08 101.659 675.295 93.874 665.691 93.874Z" fill="white"/>
<path d="M605.984 368.997H191.057C180.168 368.997 171.309 360.137 171.309 349.248V284.212C171.309 273.323 180.168 264.465 191.057 264.465H605.984C616.873 264.465 625.732 273.323 625.732 284.212V349.248C625.732 360.137 616.873 368.997 605.984 368.997ZM191.057 267.368C181.769 267.368 174.212 274.924 174.212 284.212V349.248C174.212 358.536 181.769 366.093 191.057 366.093H605.984C615.273 366.093 622.828 358.536 622.828 349.248V284.212C622.828 274.924 615.273 267.368 605.984 267.368H191.057Z" fill="#090814"/>
<path d="M605.984 495.306H191.057C180.168 495.306 171.309 486.446 171.309 475.558V410.522C171.309 399.633 180.168 390.774 191.057 390.774H605.984C616.873 390.774 625.732 399.633 625.732 410.522V475.558C625.732 486.446 616.873 495.306 605.984 495.306ZM191.057 393.678C181.769 393.678 174.212 401.234 174.212 410.522V475.558C174.212 484.846 181.769 492.403 191.057 492.403H605.984C615.273 492.403 622.828 484.846 622.828 475.558V410.522C622.828 401.234 615.273 393.678 605.984 393.678H191.057Z" fill="#090814"/>
<path d="M295.442 453.928C301.055 453.928 305.605 449.378 305.605 443.765C305.605 438.153 301.055 433.603 295.442 433.603C289.829 433.603 285.279 438.153 285.279 443.765C285.279 449.378 289.829 453.928 295.442 453.928Z" fill="#3072FF"/>
<path d="M329.559 454.654C335.172 454.654 339.722 450.104 339.722 444.491C339.722 438.878 335.172 434.328 329.559 434.328C323.947 434.328 319.396 438.878 319.396 444.491C319.396 450.104 323.947 454.654 329.559 454.654Z" fill="#3072FF"/>
<path d="M364.403 453.203C370.016 453.203 374.566 448.653 374.566 443.04C374.566 437.427 370.016 432.877 364.403 432.877C358.79 432.877 354.24 437.427 354.24 443.04C354.24 448.653 358.79 453.203 364.403 453.203Z" fill="#3072FF"/>
<path d="M399.247 453.203C404.86 453.203 409.41 448.653 409.41 443.04C409.41 437.427 404.86 432.877 399.247 432.877C393.634 432.877 389.084 437.427 389.084 443.04C389.084 448.653 393.634 453.203 399.247 453.203Z" fill="#3072FF"/>
<path d="M434.092 453.203C439.705 453.203 444.255 448.653 444.255 443.04C444.255 437.427 439.705 432.877 434.092 432.877C428.48 432.877 423.93 437.427 423.93 443.04C423.93 448.653 428.48 453.203 434.092 453.203Z" fill="#3072FF"/>
<path d="M468.936 453.203C474.549 453.203 479.099 448.653 479.099 443.04C479.099 437.427 474.549 432.877 468.936 432.877C463.323 432.877 458.773 437.427 458.773 443.04C458.773 448.653 463.323 453.203 468.936 453.203Z" fill="#3072FF"/>
<path d="M489.988 630.326H292.538C266.52 630.326 245.354 609.16 245.354 583.142C245.354 557.123 266.52 535.957 292.538 535.957H489.988C516.005 535.957 537.172 557.123 537.172 583.142C537.172 609.16 516.005 630.326 489.988 630.326Z" fill="#3072FF"/>
<path d="M39.8635 589.556C36.4324 589.556 33.0765 588.552 30.1402 586.61C26.1278 583.953 23.4212 579.887 22.5223 575.16L0.527959 459.552C-1.26273 450.135 4.6566 441.101 14.0042 438.985L112.536 416.666C117.212 415.61 122.001 416.455 126.028 419.047C130.057 421.641 132.809 425.655 133.777 430.346L157.751 546.484C159.705 555.948 153.611 565.311 144.168 567.359L43.6561 589.146C42.3943 589.42 41.1239 589.556 39.8635 589.556Z" fill="#D6D6E3"/>
<path d="M32.2916 485.419C29.8927 485.419 27.7589 483.713 27.3024 481.269C26.7863 478.51 28.6053 475.856 31.3644 475.341L111.022 460.46C113.78 459.936 116.434 461.763 116.95 464.522C117.466 467.281 115.647 469.935 112.888 470.449L33.2302 485.331C32.9155 485.39 32.6007 485.419 32.2916 485.419Z" fill="#090814"/>
<path d="M39.5514 515.907C37.2517 515.907 35.169 514.336 34.6118 512.001C33.9624 509.272 35.6482 506.531 38.3789 505.88L113.364 488.026C116.092 487.379 118.832 489.062 119.484 491.793C120.134 494.522 118.448 497.263 115.717 497.914L40.7324 515.768C40.3369 515.862 39.9413 515.907 39.5514 515.907Z" fill="#090814"/>
<path d="M44.6311 545.405C42.2818 545.405 40.1721 543.766 39.666 541.376C39.0847 538.629 40.8385 535.933 43.5833 535.352L94.7405 524.518C97.501 523.938 100.185 525.691 100.765 528.436C101.346 531.182 99.5923 533.878 96.8474 534.46L45.6902 545.293C45.3343 545.368 44.9799 545.405 44.6311 545.405Z" fill="#090814"/>
<path d="M781.301 233.887C780.398 233.887 779.485 233.817 778.567 233.673L676.965 217.733C672.209 216.986 668.058 214.414 665.273 210.488C662.489 206.564 661.433 201.794 662.299 197.061L683.495 81.3048C685.225 71.8764 693.997 65.6012 703.485 66.9836L803.433 81.716C808.172 82.415 812.337 84.933 815.157 88.8064C817.978 92.6784 819.097 97.4139 818.307 102.139L798.765 219.105C797.328 227.72 789.786 233.887 781.301 233.887Z" fill="#D6D6E3"/>
<path d="M785.294 132.091C784.985 132.091 784.672 132.063 784.357 132.003L704.693 117.143C701.934 116.629 700.115 113.976 700.63 111.217C701.143 108.458 703.79 106.628 706.556 107.154L786.22 122.014C788.979 122.528 790.798 125.181 790.283 127.94C789.828 130.384 787.693 132.091 785.294 132.091Z" fill="#090814"/>
<path d="M777.78 158.686C777.551 158.686 777.321 158.672 777.087 158.639L700.71 148.238C697.93 147.859 695.983 145.299 696.362 142.517C696.741 139.735 699.311 137.787 702.082 138.169L778.459 148.57C781.24 148.948 783.186 151.509 782.808 154.291C782.461 156.838 780.281 158.686 777.78 158.686Z" fill="#090814"/>
<path d="M747.119 185.985C746.849 185.985 746.576 185.962 746.301 185.918L694.68 177.565C691.909 177.117 690.028 174.507 690.476 171.736C690.926 168.966 693.517 167.09 696.305 167.532L747.926 175.886C750.696 176.334 752.577 178.944 752.129 181.715C751.725 184.21 749.569 185.985 747.119 185.985Z" fill="#090814"/>
</g>
<defs>
<clipPath id="clip0_3472_29506">
<rect width="818.553" height="686.948" fill="white"/>
</clipPath>
</defs>
</svg>
